<svg width="321" height="96" viewBox="0 0 321 96" fill="none" xmlns="http://www.w3.org/2000/svg">
<path d="M19.7804 50.0034C19.8206 49.9668 19.8955 50.0089 20.0051 50.1298C20.1146 50.2507 20.1493 50.3295 20.1091 50.3661C19.4057 51.0071 19.0109 51.6244 18.9249 52.2178C18.8207 52.7911 19.0735 53.5357 19.6834 54.4516L30.341 70.402C30.6094 70.8196 30.8623 71.1594 31.0997 71.4214C31.5198 71.8848 31.9234 72.0873 32.3107 72.0287C32.6797 71.9499 33.1959 71.6084 33.8591 71.004C33.9194 70.9491 34.0044 70.982 34.1139 71.1029C34.2235 71.2238 34.2481 71.3118 34.1878 71.3667C33.6452 71.8612 33.2039 72.2449 32.8641 72.5178L30.8771 74.2733L29.0051 76.0342C28.7018 76.3474 28.2688 76.7604 27.706 77.2733C27.6457 77.3282 27.5608 77.2952 27.4512 77.1743C27.3416 77.0534 27.317 76.9655 27.3773 76.9106C27.9803 76.3611 28.3768 75.9078 28.5668 75.5506C28.7569 75.1935 28.7945 74.8097 28.6795 74.3994C28.5462 73.969 28.2559 73.4057 27.8086 72.7096L16.8551 56.3114L23.595 80.6331C23.6279 80.7503 23.594 80.8547 23.4935 80.9463C23.3931 81.0379 23.2771 81.0516 23.1455 80.9875L5.30535 68.1054L14.3576 82.6489C14.8251 83.3267 15.1502 83.7663 15.3328 83.9678C15.972 84.673 16.5966 85.0788 17.2067 85.1851C17.8168 85.2914 18.3932 85.0973 18.9358 84.6028C18.9961 84.5479 19.0811 84.5808 19.1906 84.7017C19.3002 84.8226 19.3249 84.9106 19.2646 84.9655C18.8224 85.3684 18.4716 85.6697 18.2121 85.8693L16.6472 87.2402L15.3179 88.5067C15.0749 88.7649 14.7022 89.123 14.1997 89.5809C14.1394 89.6358 14.0545 89.6028 13.9449 89.4819C13.8353 89.361 13.8107 89.2731 13.871 89.2182C14.5543 88.5955 14.8815 87.7822 14.8525 86.7785C14.8053 85.7545 14.4074 84.6271 13.6587 83.3961L3.70261 67.2481C2.64137 66.9274 1.62837 67.2067 0.663635 68.0858C0.623438 68.1224 0.548553 68.0803 0.43898 67.9594C0.329408 67.8385 0.29472 67.7597 0.334917 67.7231C0.676595 67.4117 0.947009 67.1837 1.14616 67.039L2.22873 66.1077L3.70874 64.7039C3.87137 64.5189 4.07328 64.3165 4.31446 64.0967C4.53555 63.8953 4.7977 63.8403 5.10091 63.9319C5.42422 64.0052 5.94842 64.3002 6.6735 64.8168L21.3906 75.4675L15.6717 55.1272C15.4764 54.3853 15.6099 53.8038 16.0722 53.3825C16.3134 53.1627 16.5336 52.9805 16.7327 52.8358L17.8454 51.877L18.9938 50.7754C19.1564 50.5904 19.4186 50.3331 19.7804 50.0034Z" fill="#DE9E48"/>
<path d="M53.0494 54.4259C53.0567 54.3881 53.083 54.3541 53.1281 54.3237C53.1957 54.2781 53.2823 54.2853 53.388 54.3453C53.4785 54.3827 53.5164 54.4392 53.5016 54.5148C53.3486 55.8975 53.1192 57.0199 52.8136 57.882C52.4929 58.7216 52.0508 59.3312 51.4873 59.711C50.9689 60.0605 50.4873 60.1718 50.0424 60.0452C49.5824 59.8959 49.1328 59.4936 48.6935 58.8383C48.3754 58.3638 48.1024 57.8588 47.8744 57.3235L46.53 54.2927C46.9009 56.7986 46.8376 59.023 46.3402 60.9659C45.8653 62.8936 45.0531 64.2448 43.9036 65.0196C43.2049 65.4906 42.5276 65.6518 41.8718 65.5033C41.2008 65.3322 40.5775 64.8173 40.0019 63.9586C38.9567 62.3994 38.3204 60.4005 38.0929 57.962C37.8728 55.4857 38.0751 53.1513 38.6996 50.9587C39.3315 48.7283 40.3011 47.1726 41.6084 46.2914C42.0366 46.0028 42.5066 45.8008 43.0184 45.6855C43.5375 45.5325 44.042 45.5041 44.532 45.6003C44.7252 44.9123 44.7945 44.3079 44.7399 43.787C44.7547 43.7114 44.7846 43.6584 44.8297 43.628C44.8973 43.5824 44.9801 43.5595 45.078 43.5591C45.1607 43.5361 45.1984 43.5435 45.191 43.5813L50.4101 55.6144C50.5697 55.9989 50.7252 56.3042 50.8767 56.5301C51.0585 56.8013 51.2475 56.9856 51.4436 57.083C51.6398 57.1804 51.8168 57.176 51.9746 57.0696C52.4028 56.781 52.7611 55.8997 53.0494 54.4259ZM44.2862 61.563C45.0976 61.016 45.621 59.9907 45.8565 58.4869C46.1144 56.9678 46.1047 55.3668 45.8273 53.6837C45.5499 52.0007 45.1007 50.6959 44.4797 49.7694C44.0101 49.0688 43.4775 48.6404 42.8819 48.4842C42.2711 48.3053 41.6502 48.4285 41.0191 48.8539C40.2979 49.3401 39.7961 50.1048 39.5137 51.1481C39.2163 52.1688 39.1604 53.3548 39.3462 54.7059C39.5394 56.0192 39.9511 57.3657 40.5813 58.7453C40.8547 59.3484 41.1581 59.8986 41.4913 60.3957C42.4305 61.7968 43.3621 62.1858 44.2862 61.563Z" fill="#DE9E48"/>
<path d="M63.6538 33.7501C64.2305 33.4457 64.8971 33.3708 65.6534 33.5254C66.4098 33.6801 66.8853 34.0599 67.08 34.6648C67.209 35.0275 67.2172 35.4232 67.1046 35.8518C66.9794 36.2564 66.7245 36.5602 66.34 36.7631C65.9074 36.9915 65.361 37.0029 64.7008 36.7975C64.4934 36.7532 64.2923 36.7209 64.0975 36.7006C63.9027 36.6803 63.7212 36.7146 63.553 36.8034C63.0964 37.0444 62.8915 37.9987 62.9382 39.6664C62.9722 41.31 63.1877 43.2117 63.5847 45.3715C63.9691 47.5071 64.4079 49.3371 64.901 50.8614C64.9541 51.0796 64.8561 51.3313 64.6069 51.6167C64.3818 51.8894 64.0169 52.1589 63.5122 52.4253C62.7912 52.8058 62.3865 52.9118 62.298 52.7431L62.0798 51.889C62.0267 51.6709 61.954 51.3862 61.8617 51.0349C61.7568 50.6595 61.6202 50.2239 61.452 49.728L58.8382 41.4151C58.6055 40.7379 58.4449 40.3149 58.3564 40.1463C57.9517 39.3752 57.5091 39.1166 57.0284 39.3703C56.4997 39.6493 56.0374 40.4934 55.6414 41.9024C55.63 41.9392 55.6003 41.9702 55.5522 41.9956C55.4801 42.0337 55.4011 42.0292 55.3151 41.9823C55.2164 41.9113 55.1722 41.827 55.1823 41.7293C55.5176 40.3216 55.8958 39.2296 56.317 38.4534C56.7623 37.6645 57.3214 37.0925 57.9943 36.7373C58.547 36.4456 59.032 36.405 59.4494 36.6154C59.8782 36.7891 60.2696 37.2133 60.6237 37.888C60.8387 38.2976 61.0758 38.8955 61.335 39.6818L62.7766 44.1826C62.2595 41.5016 62.0421 39.2163 62.1244 37.3266C62.2067 35.437 62.7165 34.2448 63.6538 33.7501Z" fill="#DE9E48"/>
<path d="M85.7529 42.068C84.5663 42.5395 83.4345 42.4473 82.3575 41.7915C81.2706 41.1104 80.515 40.122 80.0908 38.8261C79.8965 38.1125 79.8032 37.3588 79.811 36.565C79.8087 35.7458 79.8779 34.6639 80.0187 33.3194C80.1341 31.9848 80.1974 31.1836 80.2084 30.9156C80.2251 30.4404 80.2135 30.1521 80.1735 30.0509C80.0935 29.8484 79.902 29.8073 79.599 29.9276L77.7433 30.6649C76.8343 31.026 76.2405 31.4084 75.9618 31.812C75.6831 32.2156 75.5651 32.8043 75.6078 33.5781C75.6126 33.6641 75.5518 33.7321 75.4256 33.7823C75.3499 33.8124 75.2767 33.8121 75.2062 33.7816C75.1358 33.751 75.0981 33.6927 75.0934 33.6068C75.0274 32.2565 75.0232 31.2477 75.081 30.5804C75.1539 29.8778 75.36 29.3273 75.6993 28.929C76.0285 28.5053 76.5718 28.143 77.3293 27.8421L80.8135 26.4578C81.0912 26.3474 81.2501 26.3429 81.2901 26.4442C81.3201 26.5201 81.3222 26.6364 81.2965 26.7931C81.2358 28.3402 81.2482 29.8875 81.3337 31.4351C81.4192 32.9826 81.5838 34.2498 81.8276 35.2366C81.9118 35.6717 82.0289 36.0792 82.1789 36.4589C82.5989 37.5221 83.1864 38.2699 83.9414 38.7021C84.6963 39.1344 85.4904 39.185 86.3236 38.854C87.4345 38.4126 88.2823 37.49 88.867 36.0862C89.4517 34.6824 89.5805 33.1229 89.2535 31.4077C89.1845 30.9372 89.065 30.4868 88.895 30.0565C88.645 29.4236 88.3314 28.9624 87.9542 28.673C87.5922 28.3482 87.1242 28.0509 86.5503 27.781C86.082 27.557 85.7096 27.3535 85.4328 27.1706C85.1814 26.9776 84.9906 26.7166 84.8606 26.3875C84.6406 25.8306 84.6524 25.3427 84.8958 24.9238C85.1646 24.4948 85.564 24.1751 86.0942 23.9644C87.3819 23.4528 88.4607 24.2982 89.3307 26.5006C89.5307 27.0069 89.7278 27.6169 89.9221 28.3305C90.4701 30.3093 90.6172 32.2717 90.3635 34.2177C90.1098 36.1636 89.562 37.8456 88.7201 39.2637C87.9034 40.6718 86.9143 41.6066 85.7529 42.068Z" fill="#DE9E48"/>
<path d="M106.573 17.4641C107.515 17.2027 108.295 17.17 108.913 17.3659C109.523 17.5356 109.912 17.9222 110.078 18.5258C110.411 19.733 109.829 21.0953 108.331 22.6126C106.86 24.1227 104.942 25.4457 102.579 26.5817C102.706 27.4506 102.823 28.0818 102.932 28.4755C103.374 30.0763 104.069 31.2679 105.017 32.0501C105.958 32.806 107.07 33.0061 108.352 32.6503C108.954 32.4832 109.557 32.2171 110.161 31.8518C110.757 31.4604 111.272 30.9784 111.706 30.406L111.745 30.3951C111.824 30.3733 111.9 30.3945 111.974 30.4587C112.075 30.5157 112.106 30.5777 112.068 30.6447C110.725 32.8253 108.954 34.2207 106.756 34.8307C105.028 35.31 103.571 35.1351 102.385 34.306C101.198 33.4769 100.373 32.2225 99.9097 30.5429C99.7433 29.9393 99.6241 29.252 99.5523 28.4808C99.4305 27.0173 99.6241 25.5228 100.133 23.9972C100.661 22.4381 101.48 21.0666 102.591 19.8827C103.728 18.6915 105.055 17.8853 106.573 17.4641ZM106.838 20.5691C106.818 20.2921 106.797 20.1142 106.775 20.0355C106.652 19.5894 106.414 19.2881 106.061 19.1318C105.708 18.9755 105.322 18.9555 104.903 19.0717C103.935 19.3403 103.246 20.1107 102.836 21.3828C102.452 22.6476 102.338 24.1765 102.494 25.9694C105.59 24.3196 107.037 22.5195 106.838 20.5691Z" fill="#DE9E48"/>
<path d="M123.721 30.6945C123.107 30.8078 122.621 30.7175 122.263 30.4235C121.932 30.1246 121.7 29.6136 121.568 28.8905C121.494 28.4888 121.451 27.874 121.437 27.0459L121.448 5.86421C121.445 5.39416 121.414 4.99846 121.355 4.67709C121.217 3.92724 120.881 3.60157 120.347 3.70009C119.973 3.76905 119.42 4.06488 118.688 4.58759L118.607 4.60237C118.501 4.62207 118.422 4.56744 118.37 4.43846C118.319 4.30948 118.344 4.22175 118.446 4.17527L123.765 0.204183L123.846 0.189405C123.952 0.169702 124.053 0.192631 124.148 0.258194C124.27 0.318832 124.322 0.378396 124.305 0.436884L124.402 26.4991C124.395 26.9156 124.419 27.2712 124.473 27.5657C124.596 28.2353 124.871 28.5306 125.298 28.4518C125.779 28.3631 126.444 27.7005 127.294 26.464C127.338 26.4005 127.386 26.3639 127.44 26.3541C127.52 26.3393 127.597 26.3805 127.67 26.4778C127.738 26.5483 127.739 26.6311 127.674 26.7262C126.962 27.9649 126.306 28.9027 125.704 29.5396C125.103 30.1765 124.442 30.5615 123.721 30.6945Z" fill="#DE9E48"/>
<path d="M175.412 26.3816C175.521 26.3827 175.574 26.465 175.573 26.6284C175.571 26.7917 175.516 26.8728 175.407 26.8717L169.867 26.8122C169.243 26.8055 168.345 25.7202 167.173 23.5563C166.002 21.3653 164.747 18.1929 163.406 14.0394C162.644 14.1946 161.842 14.2677 161.001 14.2586C160.675 14.2551 160.431 14.2389 160.268 14.2099L158.539 23.382C158.425 23.8981 158.365 24.374 158.361 24.8097C158.355 25.3543 158.514 25.7236 158.837 25.9177C159.188 26.1121 159.825 26.2142 160.749 26.2241C160.857 26.2253 160.911 26.3076 160.909 26.4709C160.907 26.6343 160.866 26.7156 160.784 26.7147C159.942 26.7056 159.291 26.685 158.829 26.6528L156.182 26.5836L153.494 26.5956C153.032 26.6178 152.393 26.6246 151.579 26.6159C151.47 26.6147 151.417 26.5324 151.418 26.3691C151.42 26.2057 151.475 26.1246 151.584 26.1257C152.426 26.1348 153.065 26.0736 153.501 25.9421C153.937 25.7834 154.266 25.5146 154.487 25.1357C154.708 24.7569 154.905 24.1599 155.077 23.3448L158.622 4.4706C158.738 3.76383 158.797 3.31515 158.799 3.12455C158.806 2.55276 158.633 2.16967 158.282 1.97528C157.932 1.75366 157.295 1.6379 156.371 1.62799C156.263 1.62682 156.209 1.54456 156.211 1.38119C156.213 1.21782 156.268 1.13672 156.377 1.13788L158.25 1.19884C159.335 1.26496 160.218 1.30166 160.897 1.30895C161.331 1.31361 161.739 1.30437 162.119 1.28122C162.527 1.25837 162.88 1.23493 163.179 1.21091C163.94 1.13738 164.633 1.10398 165.258 1.11068C169.711 1.15849 171.922 2.63911 171.89 5.55253C171.886 5.9065 171.841 6.31449 171.755 6.77649C171.495 8.18974 170.87 9.4493 169.881 10.5552C168.918 11.6341 167.728 12.5063 166.308 13.1719C167.63 16.4811 168.783 19.0941 169.767 21.0108C170.779 22.9006 171.728 24.2724 172.615 25.1261C173.502 25.9526 174.435 26.3711 175.412 26.3816ZM160.484 13.1093C160.944 13.196 161.392 13.2416 161.826 13.2463C163.646 13.2658 165.035 12.845 165.995 11.9839C166.955 11.1228 167.609 9.71382 167.956 7.75689C168.1 6.9415 168.175 6.28875 168.181 5.79864C168.195 4.46445 167.88 3.48074 167.235 2.84749C166.59 2.21424 165.752 1.89208 164.72 1.881C164.041 1.87371 163.551 1.92292 163.252 2.02863C162.979 2.1074 162.759 2.33651 162.592 2.71595C162.426 3.06817 162.256 3.69267 162.083 4.58946L160.484 13.1093Z" fill="#DE9E48"/>
<path d="M195.194 12.9915C196.162 13.1256 196.891 13.4053 197.381 13.8304C197.874 14.2287 198.078 14.738 197.993 15.3584C197.821 16.5991 196.749 17.6188 194.774 18.4174C192.827 19.2197 190.544 19.6731 187.925 19.7777C187.698 20.626 187.557 21.2524 187.501 21.657C187.274 23.3024 187.442 24.6725 188.004 25.7674C188.569 26.8354 189.511 27.4606 190.829 27.6432C191.448 27.7289 192.106 27.724 192.805 27.6283C193.507 27.5057 194.17 27.2677 194.795 26.9144L194.835 26.92C194.916 26.9311 194.978 26.9809 195.02 27.0693C195.09 27.1614 195.094 27.2307 195.033 27.2772C192.938 28.7464 190.761 29.3245 188.502 29.0115C186.726 28.7655 185.458 28.0262 184.696 26.7936C183.934 25.561 183.672 24.0815 183.91 22.3552C183.995 21.7348 184.157 21.0563 184.396 20.3197C184.862 18.9274 185.63 17.6318 186.7 16.4331C187.801 15.2111 189.095 14.277 190.582 13.6309C192.096 12.9885 193.634 12.7753 195.194 12.9915ZM194.21 15.9477C194.301 15.6855 194.352 15.5138 194.364 15.4329C194.427 14.9744 194.327 14.6032 194.065 14.3195C193.802 14.0357 193.456 13.864 193.026 13.8044C192.03 13.6665 191.093 14.1003 190.214 15.1056C189.362 16.1146 188.654 17.4734 188.09 19.182C191.583 18.8962 193.623 17.8181 194.21 15.9477Z" fill="#DE9E48"/>
<path d="M206.189 32.1304C205.106 31.872 204.225 31.4098 203.546 30.7439C202.893 30.0843 202.648 29.4101 202.812 28.7214C202.944 28.1651 203.203 27.779 203.589 27.5633C203.975 27.3475 204.393 27.2932 204.842 27.4003C205.212 27.4886 205.488 27.6803 205.669 27.9754C205.876 28.2768 206.049 28.6679 206.186 29.1484C206.397 29.7867 206.63 30.276 206.884 30.6166C207.138 30.9571 207.556 31.1967 208.137 31.3354C208.692 31.4677 209.136 31.4197 209.469 31.1914C209.835 30.9428 210.147 30.5133 210.403 29.9027C210.455 29.803 210.506 29.6472 210.556 29.4353C210.745 28.6406 210.667 27.9084 210.324 27.2386C210.013 26.5487 209.49 25.7522 208.756 24.8492C208.014 23.8604 207.484 23.0342 207.167 22.3708C206.85 21.7073 206.786 20.9783 206.975 20.1835C207.163 19.3888 207.593 18.6937 208.265 18.0982C208.963 17.5091 209.802 17.0933 210.781 16.851C211.786 16.6149 212.803 16.6198 213.834 16.8656C214.996 17.1429 215.87 17.5754 216.457 18.1632C217.043 18.7509 217.218 19.3664 216.981 20.0098C216.795 20.4412 216.512 20.7515 216.132 20.9408C215.758 21.1036 215.387 21.1409 215.017 21.0526C214.541 20.9392 214.21 20.7481 214.022 20.4795C213.835 20.2108 213.676 19.823 213.545 19.3159C213.414 18.8088 213.242 18.4178 213.028 18.1429C212.847 17.8478 212.505 17.6403 212.003 17.5206C211.528 17.4071 211.113 17.4482 210.76 17.6437C210.413 17.8128 210.165 18.0897 210.018 18.4745C209.967 18.5742 209.916 18.7299 209.865 18.9419C209.702 19.6306 209.779 20.3067 210.096 20.9702C210.413 21.6336 210.922 22.4269 211.624 23.3502C212.38 24.3983 212.924 25.2837 213.254 26.0064C213.592 26.7026 213.663 27.4614 213.468 28.2826C213.291 29.0243 212.839 29.756 212.109 30.4776C211.386 31.1728 210.496 31.6882 209.439 32.0239C208.409 32.3659 207.325 32.4014 206.189 32.1304Z" fill="#DE9E48"/>
<path d="M236.078 23.4434C237.003 23.761 237.665 24.1754 238.065 24.6867C238.473 25.1723 238.576 25.7113 238.373 26.3038C237.968 27.4888 236.721 28.2838 234.631 28.6887C232.566 29.1024 230.239 29.1092 227.649 28.7092C227.264 29.4983 227.006 30.0861 226.874 30.4725C226.337 32.0439 226.24 33.4209 226.582 34.6034C226.933 35.7602 227.738 36.5547 228.997 36.9869C229.588 37.1898 230.235 37.3113 230.939 37.3515C231.652 37.3659 232.348 37.2597 233.029 37.0327L233.067 37.0459C233.144 37.0724 233.195 37.1331 233.22 37.228C233.271 37.3318 233.262 37.4006 233.193 37.4345C230.857 38.4746 228.61 38.6242 226.452 37.8832C224.756 37.301 223.652 36.3319 223.14 34.9758C222.627 33.6196 222.652 32.1172 223.216 30.4685C223.418 29.8759 223.707 29.2411 224.082 28.5639C224.805 27.2867 225.806 26.1625 227.085 25.1913C228.399 24.2031 229.847 23.5346 231.43 23.1859C233.039 22.846 234.588 22.9318 236.078 23.4434ZM234.549 26.1563C234.688 25.9164 234.771 25.7577 234.797 25.6805C234.947 25.2425 234.92 24.8591 234.717 24.5302C234.513 24.2013 234.206 23.9663 233.795 23.8252C232.845 23.4988 231.842 23.7447 230.787 24.5627C229.759 25.3896 228.804 26.5874 227.924 28.156C231.407 28.5461 233.615 27.8796 234.549 26.1563Z" fill="#DE9E48"/>
<path d="M256.05 46.3429C256.087 46.3297 256.129 46.3347 256.178 46.3577C256.252 46.3923 256.291 46.4705 256.294 46.5922C256.309 46.6893 256.28 46.751 256.208 46.7772C254.947 47.3589 253.87 47.7407 252.976 47.9228C252.093 48.0802 251.344 48.0148 250.729 47.7266C250.163 47.4614 249.82 47.105 249.699 46.6575C249.589 46.1853 249.701 45.5916 250.035 44.8762C250.276 44.3581 250.567 43.8631 250.907 43.3912L252.804 40.6731C250.854 42.2841 248.92 43.3769 247.004 43.9516C245.112 44.5378 243.538 44.5369 242.284 43.9489C241.521 43.5915 241.034 43.0927 240.823 42.4527C240.623 41.788 240.742 40.987 241.179 40.0495C241.973 38.3474 243.353 36.7698 245.319 35.3167C247.322 33.8505 249.421 32.8203 251.617 32.2261C253.848 31.6187 255.677 31.6494 257.104 32.3181C257.572 32.5371 257.986 32.8368 258.349 33.217C258.747 33.584 259.031 34.0028 259.202 34.4734C259.889 34.2846 260.441 34.0324 260.858 33.7168C260.931 33.6906 260.991 33.689 261.041 33.712C261.114 33.7466 261.177 33.8059 261.227 33.8898C261.29 33.949 261.303 33.9852 261.267 33.9984L253.675 44.6883C253.428 45.0237 253.247 45.3148 253.132 45.5615C252.994 45.8575 252.934 46.1149 252.952 46.3337C252.97 46.5525 253.065 46.7022 253.237 46.7829C253.705 47.002 254.642 46.8553 256.05 46.3429ZM245.435 42.4948C246.32 42.9099 247.466 42.8308 248.873 42.2575C250.304 41.6957 251.667 40.8616 252.962 39.7553C254.257 38.6489 255.141 37.59 255.612 36.5786C255.969 35.8139 256.06 35.1354 255.887 34.5431C255.725 33.9261 255.3 33.4562 254.611 33.1334C253.824 32.7645 252.911 32.7277 251.874 33.0232C250.849 33.2941 249.807 33.8577 248.748 34.7142C247.725 35.5575 246.787 36.6056 245.933 37.8586C245.558 38.4046 245.245 38.9489 244.991 39.4916C244.278 41.0211 244.426 42.0221 245.435 42.4948Z" fill="#DE9E48"/>
<path d="M279.184 44.7902C279.742 45.1287 280.149 45.6628 280.407 46.3923C280.665 47.1219 280.585 47.7263 280.169 48.2056C279.926 48.5035 279.592 48.7146 279.167 48.839C278.757 48.94 278.366 48.8777 277.994 48.652C277.576 48.3981 277.285 47.9346 277.12 47.2615C277.051 47.0604 276.975 46.8709 276.892 46.6931C276.809 46.5153 276.686 46.3771 276.523 46.2783C276.082 46.0103 275.161 46.3265 273.76 47.2267C272.373 48.1036 270.859 49.2695 269.218 50.7245C267.591 52.1562 266.254 53.4769 265.205 54.6868C265.046 54.8449 264.781 54.8905 264.408 54.8236C264.059 54.7708 263.641 54.5963 263.153 54.3001C262.456 53.877 262.157 53.5839 262.256 53.4208L262.873 52.7929C263.032 52.6348 263.238 52.4255 263.491 52.165C263.757 51.8812 264.059 51.5392 264.396 51.139L270.152 44.6061C270.611 44.0569 270.89 43.7008 270.988 43.5377C271.439 42.7924 271.431 42.2787 270.967 41.9966C270.456 41.6863 269.496 41.7244 268.088 42.1109C268.051 42.12 268.009 42.1105 267.963 42.0823C267.893 42.04 267.856 41.9698 267.852 41.8717C267.861 41.7503 267.911 41.6688 267.999 41.6272C269.375 41.1892 270.503 40.9509 271.384 40.9125C272.287 40.8882 273.064 41.0735 273.715 41.4685C274.249 41.7929 274.534 42.1887 274.569 42.6558C274.641 43.1138 274.481 43.6688 274.087 44.321C273.847 44.7169 273.459 45.229 272.921 45.8573L269.818 49.417C271.842 47.5901 273.683 46.2247 275.34 45.3208C276.997 44.417 278.279 44.2401 279.184 44.7902Z" fill="#DE9E48"/>
<path d="M282.54 67.3746C281.063 66.2635 280.333 64.9483 280.349 63.4289C280.404 61.904 280.986 60.4009 282.094 58.9197C282.485 58.3969 282.996 57.8279 283.626 57.2125C284.81 56.1288 286.149 55.3828 287.643 54.9745C289.137 54.5661 290.589 54.4845 292.002 54.7297C293.43 54.9531 294.644 55.4406 295.643 56.1922C296.425 56.7804 296.979 57.4694 297.304 58.259C297.668 59.0433 297.622 59.7404 297.165 60.3503C296.823 60.8077 296.416 61.08 295.943 61.1671C295.509 61.2488 295.052 61.1099 294.575 60.7504C293.749 60.1295 293.595 59.3153 294.111 58.3078C294.279 57.8558 294.347 57.4474 294.315 57.0825C294.298 56.6959 294.084 56.3473 293.671 56.0369C292.889 55.4486 291.906 55.356 290.722 55.7589C289.576 56.1564 288.389 56.9487 287.161 58.1358C286.493 58.7566 285.907 59.4047 285.401 60.0799C284.358 61.474 283.801 62.8083 283.73 64.0826C283.697 65.3515 284.257 66.419 285.408 67.2849C285.907 67.6608 286.521 67.9522 287.249 68.1591C287.993 68.3444 288.693 68.4288 289.351 68.4125L289.383 68.437C289.448 68.4861 289.489 68.5677 289.505 68.6821C289.522 68.7965 289.484 68.87 289.391 68.9027C287.979 69.066 286.681 69.0087 285.497 68.7309C284.351 68.4476 283.366 67.9955 282.54 67.3746Z" fill="#DE9E48"/>
<path d="M308.395 84.8462C308.472 84.8437 308.53 84.8611 308.57 84.8984C308.629 84.9543 308.641 85.0406 308.607 85.1573C308.591 85.2541 308.525 85.3044 308.41 85.308C306.993 85.4688 305.851 85.4955 304.983 85.3883C304.115 85.2812 303.404 84.9667 302.849 84.445C302.414 84.035 302.208 83.5985 302.232 83.1354C302.275 82.691 302.539 82.2106 303.022 81.6943C303.32 81.3766 303.796 80.9665 304.453 80.464L309.747 76.5388C310.292 76.1554 310.788 75.7255 311.234 75.2489C312.2 74.2164 312.337 73.3741 311.644 72.7219C311.07 72.1815 310.122 71.9806 308.801 72.119C307.499 72.276 305.902 72.8085 304.01 73.7165C302.136 74.6045 300.11 75.8538 297.932 77.4643L297.172 78.0376C296.738 78.3018 296.096 78.0333 295.245 77.2321C294.651 76.6731 294.419 76.3241 294.549 76.1851L295.281 75.6417C296.352 74.8948 296.954 74.471 297.085 74.3705L314.603 61.4449C314.978 61.1632 315.268 60.9132 315.472 60.6948C315.751 60.3969 315.906 60.1319 315.937 59.8997C315.968 59.6676 315.875 59.449 315.657 59.2441C315.38 58.9832 314.814 58.7123 313.96 58.4313L313.901 58.3754C313.841 58.3195 313.838 58.2232 313.891 58.0867C313.965 57.9688 314.05 57.9372 314.148 57.9918L320.491 59.928L320.551 59.9839C320.63 60.0584 320.671 60.1534 320.675 60.2689C320.698 60.403 320.682 60.4806 320.625 60.5017L303.732 73.1185C306.116 71.9637 308.228 71.3185 310.068 71.1828C311.928 71.0658 313.373 71.4917 314.402 72.4606C315.729 73.7091 315.639 75.1374 314.134 76.7458C313.781 77.1231 313.257 77.5828 312.564 78.1251L306.621 82.5043C306.283 82.7463 306.021 82.9665 305.835 83.1651C305.352 83.6814 305.279 84.0979 305.615 84.4146C305.971 84.75 306.898 84.8939 308.395 84.8462Z" fill="#DE9E48"/>
<path d="M313.018 95.1124C312.57 94.601 312.364 94.0763 312.399 93.5383C312.433 93.0003 312.696 92.5156 313.185 92.0843C313.654 91.6709 314.147 91.4906 314.663 91.5433C315.2 91.5781 315.692 91.8512 316.14 92.3626C316.57 92.8535 316.759 93.3578 316.706 93.8753C316.674 94.3749 316.423 94.8314 315.954 95.2447C315.464 95.6761 314.96 95.8846 314.441 95.8703C313.923 95.8559 313.448 95.6033 313.018 95.1124Z" fill="#DE9E48"/>
</svg>
