<svg width="394" height="338" viewBox="0 0 394 338" fill="none" xmlns="http://www.w3.org/2000/svg">
<path d="M59.6212 325.373C58.6999 324.031 58.2657 322.723 58.3187 321.451C58.3716 320.178 58.8863 319.104 59.8625 318.23C60.1414 317.98 60.4525 317.749 60.7957 317.535C61.8236 316.929 62.985 316.611 64.2797 316.582C65.5414 316.552 66.8034 316.82 68.0656 317.385C69.3122 317.934 70.4044 318.731 71.342 319.776C71.7795 320.264 72.23 320.818 72.6934 321.44C72.8791 321.682 73.1039 321.968 73.3678 322.297C73.616 322.609 73.9042 322.947 74.2324 323.313L75.8056 325.014C76.0887 325.295 76.4646 325.696 76.9335 326.219C76.9647 326.254 76.928 326.318 76.8234 326.412C76.7188 326.505 76.6509 326.535 76.6197 326.5C75.9477 325.751 75.3569 325.338 74.8471 325.26C74.3374 325.183 73.6531 325.419 72.7941 325.968L58.7649 334.67C58.4042 334.899 58.128 335.099 57.9363 335.271C57.5353 335.63 57.3754 335.977 57.4565 336.313C57.5046 336.647 57.7943 337.11 58.3256 337.703C58.3725 337.755 58.3436 337.828 58.239 337.921C58.1188 337.998 58.0431 338.018 58.0118 337.984L56.9362 336.732C56.346 336.004 55.8712 335.44 55.5118 335.039C55.2305 334.726 54.9717 334.455 54.7355 334.226C54.4993 333.998 54.2944 333.805 54.1207 333.646C53.6152 333.188 53.1593 332.732 52.753 332.279C51.5028 330.886 50.8023 329.597 50.6516 328.413C50.4677 327.226 50.8203 326.235 51.7094 325.439C51.936 325.236 52.1948 325.051 52.4857 324.885C53.477 324.342 54.5842 324.105 55.8074 324.171C57.0306 324.238 58.3019 324.639 59.6212 325.373ZM62.6424 328.794L61.8012 327.803C60.848 326.741 59.7101 326.173 58.3877 326.101C57.0323 326.027 55.7039 326.369 54.4024 327.126C53.9216 327.431 53.6027 327.654 53.4458 327.795C52.7485 328.419 52.4121 329.113 52.4367 329.877C52.4613 330.64 52.8564 331.448 53.6222 332.302C54.0753 332.807 54.5421 333.065 55.0223 333.074C55.5026 333.084 56.1548 332.83 56.9789 332.311L62.6424 328.794ZM63.3418 319.637C62.793 319.972 62.353 320.288 62.0217 320.584C61.0629 321.443 60.579 322.411 60.5699 323.487C60.5452 324.546 61.0641 325.668 62.1268 326.852C62.6581 327.444 63.1131 327.916 63.4917 328.268L70.9324 323.63C71.2407 323.448 71.4908 323.271 71.6826 323.099C72.0312 322.787 72.1737 322.455 72.11 322.104C72.0307 321.735 71.7176 321.246 71.1706 320.636C68.9672 318.18 66.3576 317.847 63.3418 319.637Z" fill="#DE9E48"/>
<path d="M50.961 297.962C50.9284 297.957 50.8988 297.934 50.8721 297.896C50.8321 297.838 50.8373 297.763 50.8876 297.672C50.9187 297.593 50.9668 297.56 51.0319 297.572C52.2224 297.687 53.1901 297.871 53.935 298.124C54.6606 298.39 55.19 298.763 55.5233 299.244C55.8299 299.686 55.9315 300.1 55.828 300.484C55.7052 300.882 55.3647 301.275 54.8066 301.661C54.4025 301.941 53.9717 302.182 53.5142 302.385L50.9248 303.579C53.0747 303.23 54.9877 303.257 56.664 303.662C58.3269 304.048 59.4983 304.731 60.1782 305.712C60.5915 306.308 60.7383 306.889 60.6185 307.456C60.4795 308.036 60.0443 308.579 59.313 309.085C57.9851 310.004 56.2743 310.577 54.1807 310.802C52.0545 311.022 50.0452 310.876 48.1527 310.365C46.2277 309.847 44.8786 309.031 44.1053 307.916C43.852 307.55 43.6727 307.148 43.5675 306.709C43.4297 306.263 43.3992 305.829 43.476 305.406C42.8823 305.248 42.3618 305.195 41.9146 305.249C41.8495 305.237 41.8036 305.212 41.7769 305.173C41.7369 305.116 41.7162 305.045 41.7146 304.96C41.6939 304.889 41.6998 304.857 41.7324 304.863L52.0144 300.221C52.3431 300.079 52.6036 299.942 52.7961 299.808C53.027 299.648 53.1832 299.483 53.2646 299.313C53.3459 299.143 53.34 298.991 53.2467 298.856C52.9934 298.491 52.2315 298.193 50.961 297.962ZM57.202 305.424C56.722 304.732 55.8342 304.293 54.5386 304.109C53.2296 303.905 51.8533 303.933 50.4097 304.192C48.9661 304.451 47.8498 304.854 47.0608 305.4C46.4642 305.813 46.1023 306.277 45.9751 306.792C45.8287 307.32 45.9421 307.854 46.3154 308.392C46.742 309.008 47.4055 309.431 48.3058 309.661C49.1869 309.905 50.2071 309.939 51.3664 309.762C52.4931 309.58 53.6457 309.209 54.8242 308.649C55.3394 308.407 55.8087 308.139 56.2321 307.846C57.4253 307.02 57.7486 306.213 57.202 305.424Z" fill="#DE9E48"/>
<path d="M40.979 280.095C40.9473 280.085 40.9203 280.06 40.8981 280.019C40.8536 279.936 40.8615 279.852 40.9217 279.767C40.9614 279.692 41.0184 279.675 41.093 279.714C43.3924 280.23 44.7587 280.889 45.192 281.692C45.4808 282.227 45.5865 282.768 45.5091 283.315C45.4 283.852 45.0816 284.569 44.554 285.464L42.4911 288.887C42.3026 289.228 42.1902 289.488 42.1538 289.667C42.1174 289.846 42.1547 290.039 42.2658 290.244L48.0208 288.34C48.4473 288.244 48.8994 288.638 49.3771 289.523C49.7104 290.141 49.8049 290.489 49.6606 290.566L48.9139 290.809C47.8342 291.125 47.227 291.306 47.0923 291.352L29.2471 297.098C28.8634 297.225 28.5583 297.349 28.3316 297.471C28.0224 297.638 27.8235 297.811 27.7348 297.992C27.6461 298.173 27.6629 298.376 27.7851 298.603C27.9406 298.891 28.3293 299.266 28.951 299.729L28.9844 299.79C29.0177 299.852 28.994 299.931 28.9131 300.028C28.8212 300.104 28.7427 300.107 28.6777 300.035L24.0191 296.725L23.9857 296.663C23.9413 296.581 23.9333 296.492 23.9618 296.397C23.9792 296.281 24.0141 296.222 24.0664 296.221L37.4122 291.822C36.291 291.47 35.2854 290.962 34.3956 290.298C33.4851 289.646 32.7966 288.887 32.33 288.022C31.9411 287.302 31.8235 286.714 31.9771 286.259C32.1196 285.784 32.4072 285.429 32.84 285.196C33.6437 284.763 34.6871 284.799 35.9701 285.304C37.2531 285.809 38.6164 286.709 40.0599 288.004L42.2534 284.232C42.7113 283.453 42.9814 282.87 43.0637 282.48C43.1348 282.069 43.0815 281.699 42.9038 281.37C42.6483 280.896 42.0067 280.471 40.979 280.095ZM34.4854 289.134C34.9742 290.04 35.8513 290.63 37.1168 290.905C38.3712 291.16 39.7918 291.032 41.3788 290.523L41.6903 290.435C40.4212 289.019 39.3028 288.08 38.3354 287.618C37.3473 287.167 36.3824 287.128 35.4407 287.503C34.4372 287.91 34.1188 288.454 34.4854 289.134Z" fill="#DE9E48"/>
<path d="M24.6667 270.384C24.2263 269.3 24.1844 268.358 24.5411 267.556C24.8889 266.734 25.616 266.098 26.7223 265.649C27.091 265.499 27.4838 265.378 27.9007 265.284C29.4421 264.911 31.0157 264.866 32.6214 265.149C34.1966 265.419 35.5928 265.963 36.81 266.782C38.0184 267.58 38.8605 268.563 39.3361 269.734C39.5123 270.167 39.6932 270.675 39.8788 271.256L46.1258 269.933C46.5426 269.84 46.8704 269.745 47.109 269.648C47.456 269.507 47.6747 269.33 47.7648 269.117C47.8462 268.882 47.812 268.58 47.6623 268.211C47.6271 268.125 47.5085 267.895 47.3066 267.522C47.2496 267.445 47.271 267.373 47.3706 267.307C47.492 267.233 47.5811 267.234 47.638 267.312L51.0127 272.912C51.0608 272.968 51.0242 273.033 50.9028 273.108C50.7903 273.204 50.7056 273.213 50.6487 273.135C50.3769 272.715 50.1211 272.427 49.8812 272.272C49.6629 272.108 49.38 272.034 49.0322 272.049C48.6845 272.064 48.1263 272.151 47.3577 272.312L30.6818 275.859C31.5107 276.406 32.0952 276.787 32.4355 277.003C32.466 277.016 32.49 277.044 32.5076 277.087C32.5341 277.152 32.5127 277.224 32.4436 277.302C32.3744 277.381 32.3049 277.397 32.2351 277.349C31.6902 277.065 30.9162 276.622 29.9131 276.019L27.4312 276.534C27.3879 276.551 27.1371 276.401 26.6789 276.081C26.1991 275.771 25.7369 275.504 25.2922 275.281C24.8259 275.066 24.38 274.994 23.9543 275.066C23.8587 275.08 23.7997 275.028 23.7774 274.911C23.7462 274.772 23.7784 274.696 23.874 274.682L27.2547 273.954C26.0315 272.809 25.1688 271.619 24.6667 270.384ZM30.0182 267.417C29.5668 267.55 29.2326 267.66 29.0157 267.748C26.8899 268.611 26.1925 269.941 26.9236 271.74C27.2231 272.477 27.6592 273.146 28.2318 273.747L38.4197 271.583C38.4545 270.735 38.2956 269.878 37.9433 269.011C37.4765 267.863 36.5426 267.181 35.1415 266.967C33.7317 266.731 32.0239 266.881 30.0182 267.417Z" fill="#DE9E48"/>
<path d="M27.6494 243.308C27.6205 243.292 27.5998 243.261 27.5871 243.216C27.568 243.149 27.5973 243.08 27.6747 243.009C27.7297 242.945 27.786 242.93 27.8438 242.962C28.9319 243.458 29.787 243.947 30.409 244.428C31.0084 244.915 31.3874 245.441 31.5459 246.004C31.6918 246.522 31.6531 246.946 31.4299 247.276C31.1842 247.612 30.7345 247.872 30.081 248.056C29.6077 248.189 29.1217 248.277 28.6231 248.32L25.7856 248.608C27.9323 248.976 29.7322 249.624 31.1853 250.552C32.632 251.458 33.5171 252.485 33.8406 253.633C34.0372 254.331 33.9865 254.929 33.6887 255.426C33.3683 255.929 32.7799 256.301 31.9236 256.542C30.3685 256.979 28.5645 256.964 26.5114 256.496C24.4295 256.012 22.5771 255.221 20.9543 254.122C19.3025 253.007 18.2928 251.796 17.9249 250.49C17.8044 250.062 17.766 249.623 17.8096 249.173C17.8243 248.708 17.9369 248.287 18.1475 247.912C17.6375 247.569 17.1624 247.351 16.7222 247.256C16.6645 247.223 16.6293 247.185 16.6166 247.14C16.5976 247.072 16.6011 246.998 16.6271 246.918C16.6306 246.844 16.6468 246.815 16.6757 246.831L27.9097 245.787C28.2667 245.759 28.5579 245.714 28.7833 245.65C29.0537 245.574 29.2552 245.469 29.3875 245.335C29.5199 245.2 29.5639 245.054 29.5195 244.897C29.399 244.469 28.7757 243.939 27.6494 243.308ZM31.1201 252.393C30.8918 251.583 30.1951 250.879 29.0301 250.283C27.8588 249.665 26.5484 249.244 25.099 249.019C23.6495 248.795 22.4628 248.813 21.5388 249.073C20.8402 249.269 20.3469 249.59 20.0589 250.036C19.7483 250.487 19.6819 251.029 19.8594 251.659C20.0624 252.38 20.5519 252.995 21.3281 253.506C22.0818 254.023 23.0355 254.387 24.1891 254.597C25.3139 254.791 26.5246 254.816 27.8212 254.67C28.3874 254.608 28.9184 254.507 29.4142 254.368C30.8115 253.975 31.3801 253.317 31.1201 252.393Z" fill="#DE9E48"/>
<path d="M28.5619 231.455C28.8049 232.932 28.5077 234.154 27.6704 235.122C26.8292 236.066 25.6347 236.665 24.0869 236.919C23.44 237.025 22.7818 237.062 22.1122 237.03C20.7074 237 19.4033 236.716 18.1998 236.179C16.9925 235.619 16.0012 234.857 15.2259 233.894C14.4275 232.934 13.9315 231.866 13.7378 230.689C13.491 229.188 13.7748 227.956 14.5891 226.993C15.4033 226.029 16.5844 225.421 18.1322 225.166C18.7559 225.064 19.4257 225.025 20.1416 225.05C21.6656 225.084 23.037 225.416 24.2557 226.045C25.4706 226.652 26.4541 227.439 27.2063 228.406C27.9316 229.353 28.3835 230.37 28.5619 231.455ZM27.502 230.42C27.3691 229.612 26.824 228.966 25.8667 228.484C24.9094 228.001 23.6688 227.742 22.1447 227.708C21.3327 227.675 20.4877 227.731 19.6098 227.875C18.0851 228.126 16.8582 228.6 15.929 229.298C14.9961 229.972 14.6037 230.76 14.7518 231.66C14.8808 232.445 15.4144 233.092 16.3524 233.602C17.2865 234.089 18.5503 234.344 20.1437 234.366C21.1405 234.369 21.9739 234.315 22.6439 234.205C24.1917 233.951 25.4321 233.486 26.365 232.811C27.2711 232.117 27.6501 231.32 27.502 230.42Z" fill="#DE9E48"/>
<path d="M25.7492 201.154C25.7462 201.692 25.5918 202.089 25.286 202.345C24.9803 202.577 24.5115 202.691 23.8794 202.688C23.5282 202.686 23.0018 202.624 22.3001 202.504L4.40886 199.105C4.01126 199.033 3.67199 198.996 3.39106 198.994C2.73554 198.991 2.40648 199.223 2.40387 199.691C2.40204 200.018 2.56304 200.534 2.88688 201.237L2.88649 201.308C2.88597 201.401 2.82712 201.459 2.70993 201.482C2.59274 201.505 2.5227 201.469 2.49981 201.376L0 196.238L0.000391832 196.168C0.000914279 196.075 0.0364879 195.993 0.107113 195.923C0.177869 195.83 0.236594 195.795 0.283287 195.819L22.3146 199.907C22.6654 199.979 22.9695 200.016 23.227 200.017C23.8123 200.021 24.106 199.835 24.1081 199.461C24.1104 199.04 23.6576 198.37 22.7497 197.453C22.7031 197.406 22.68 197.359 22.6802 197.312C22.6806 197.242 22.7278 197.184 22.8217 197.138C22.8922 197.091 22.9624 197.103 23.0322 197.174C23.9642 197.974 24.6509 198.68 25.0923 199.291C25.5338 199.902 25.7527 200.523 25.7492 201.154Z" fill="#DE9E48"/>
<path d="M24.3179 176.274C24.297 176.248 24.2889 176.212 24.2936 176.165C24.3006 176.096 24.3531 176.042 24.451 176.005C24.5256 175.965 24.5838 175.971 24.6257 176.023C25.4565 176.882 26.073 177.65 26.4753 178.325C26.8544 178.999 27.0145 179.626 26.9556 180.208C26.9015 180.743 26.7101 181.124 26.3814 181.349C26.0294 181.572 25.5157 181.65 24.8402 181.581C24.351 181.532 23.8666 181.436 23.3868 181.294L20.6411 180.523C22.5036 181.651 23.9408 182.913 24.9527 184.309C25.967 185.681 26.4141 186.96 26.2941 188.147C26.2211 188.869 25.955 189.406 25.4957 189.759C25.0132 190.11 24.3293 190.241 23.4442 190.152C21.837 189.99 20.1639 189.315 18.4249 188.129C16.665 186.916 15.2314 185.502 14.1242 183.885C12.9961 182.243 12.5002 180.747 12.6367 179.397C12.6814 178.955 12.8065 178.533 13.0119 178.13C13.1964 177.702 13.4553 177.352 13.7887 177.08C13.4398 176.575 13.0779 176.197 12.7031 175.948C12.6613 175.896 12.6427 175.847 12.6474 175.801C12.6544 175.731 12.6848 175.664 12.7384 175.599C12.7688 175.531 12.7944 175.51 12.8154 175.536L23.6516 178.675C23.9939 178.78 24.2815 178.845 24.5145 178.868C24.794 178.896 25.02 178.872 25.1924 178.796C25.3649 178.719 25.4594 178.599 25.4758 178.436C25.5206 177.994 25.1346 177.273 24.3179 176.274ZM24.2172 185.998C24.3019 185.16 23.9114 184.25 23.0459 183.27C22.1826 182.265 21.1177 181.394 19.8512 180.655C18.5847 179.915 17.4739 179.498 16.5189 179.401C15.7968 179.328 15.2201 179.446 14.7889 179.756C14.3343 180.062 14.0741 180.542 14.0082 181.193C13.9329 181.938 14.1627 182.69 14.6977 183.45C15.2095 184.207 15.9635 184.894 16.96 185.512C17.9354 186.104 19.0531 186.57 20.3131 186.908C20.8627 187.058 21.3937 187.159 21.9062 187.21C23.3503 187.356 24.1207 186.952 24.2172 185.998Z" fill="#DE9E48"/>
<path d="M16.7674 155.986C16.9645 155.096 17.4501 154.472 18.2242 154.116C19.0033 153.737 19.953 153.671 21.0731 153.919C21.3703 153.984 21.8288 154.134 22.4487 154.366C24.2245 155.118 25.6795 156.182 26.8136 157.558C27.9528 158.912 28.7391 160.344 29.1725 161.853C29.5881 163.334 29.6721 164.634 29.4245 165.754C29.1718 166.896 28.7322 167.745 28.1056 168.301C27.4791 168.858 26.7429 169.043 25.897 168.856C25.7599 168.825 25.5592 168.757 25.295 168.651L8.35573 161.496C7.98227 161.341 7.65838 161.234 7.38407 161.173C6.74399 161.032 6.37342 161.19 6.27237 161.647C6.20163 161.966 6.25049 162.504 6.41894 163.26L6.40378 163.329C6.38357 163.42 6.31379 163.464 6.19444 163.462C6.07509 163.46 6.01408 163.41 6.01143 163.314L4.64913 157.766L4.66429 157.698C4.6845 157.606 4.73647 157.534 4.82021 157.481C4.909 157.404 4.97373 157.383 5.0144 157.416L21.1494 164.142C19.5839 162.981 18.3889 161.663 17.5645 160.187C16.7451 158.689 16.4794 157.288 16.7674 155.986ZM22.8447 157.616C22.2578 157.343 21.7129 157.151 21.21 157.04C20.4784 156.878 19.8652 156.886 19.3702 157.064C18.8753 157.243 18.5646 157.617 18.4383 158.188C18.1452 159.513 18.6432 160.893 19.9323 162.328C21.2264 163.739 23.0688 164.949 25.4595 165.956C25.5688 166.004 25.7377 166.053 25.9663 166.104C26.6521 166.255 27.2601 166.162 27.7905 165.824C28.303 165.458 28.6351 164.932 28.7867 164.247C28.9433 163.539 28.8231 162.782 28.426 161.975C28.0061 161.164 27.3171 160.377 26.3589 159.614C25.4057 158.829 24.2343 158.163 22.8447 157.616Z" fill="#DE9E48"/>
<path d="M35.2029 134.639C35.1885 134.609 35.1891 134.573 35.2046 134.528C35.2278 134.462 35.2913 134.422 35.3952 134.409C35.477 134.388 35.5433 134.411 35.5941 134.479C36.2211 135.591 36.6323 136.54 36.8275 137.328C37.0305 138.093 37.0236 138.785 36.8068 139.403C36.6364 139.888 36.3799 140.195 36.0374 140.323C35.6948 140.451 35.2363 140.414 34.6619 140.213C34.2421 140.066 33.8267 139.871 33.4158 139.628L30.266 137.893C32.0277 139.377 33.2899 140.836 34.0528 142.268C34.8234 143.678 35.0073 144.957 34.6047 146.105C34.0781 147.606 32.9311 148.048 31.1636 147.429C30.567 147.22 30.0119 146.963 29.4983 146.659L24.0174 143.401C23.7092 143.219 23.4446 143.089 23.2237 143.012C22.6492 142.811 22.2962 142.898 22.1645 143.273C22.0871 143.494 22.1047 143.797 22.2172 144.184C22.3297 144.57 22.5223 145.047 22.795 145.613C22.8237 145.673 22.8303 145.725 22.8148 145.769C22.7916 145.835 22.7391 145.879 22.6573 145.9C22.5534 145.913 22.48 145.875 22.4369 145.785C21.8021 144.695 21.3826 143.805 21.1785 143.114C20.9601 142.393 20.9554 141.734 21.1645 141.138C21.5052 140.167 22.2721 139.89 23.4651 140.308C23.8186 140.432 24.2853 140.657 24.8653 140.984L29.763 143.889C30.3352 144.238 30.8422 144.49 31.2841 144.645C32.4329 145.047 33.1468 144.851 33.4255 144.056C33.6578 143.394 33.4671 142.559 32.8532 141.55C32.2393 140.542 31.2123 139.439 29.772 138.24C28.3395 137.02 26.5551 135.812 24.4188 134.618L24.1985 134.504C23.8395 134.254 23.8265 133.655 24.1595 132.705C24.3918 132.043 24.5852 131.739 24.7399 131.793L25.4225 132.181C26.3835 132.765 26.9264 133.092 27.0513 133.16L33.9655 137.106C34.1488 137.22 34.3952 137.331 34.7045 137.439C35.3452 137.664 35.7353 137.577 35.8746 137.18C36.045 136.694 35.8211 135.847 35.2029 134.639Z" fill="#DE9E48"/>
<path d="M51.328 119.677C51.4398 119.765 51.4111 119.962 51.2418 120.27C51.1403 120.454 51.0136 120.612 50.8618 120.742C50.7305 120.883 50.6295 120.921 50.5587 120.856L26.0427 101.174C25.9514 101.098 25.9904 100.905 26.1596 100.598C26.2725 100.393 26.4048 100.225 26.5566 100.095C26.6879 99.9538 26.7889 99.9159 26.8597 99.9814L51.328 119.677Z" fill="#DE9E48"/>
<path d="M45.144 73.3067C45.7246 72.5429 46.3269 72.06 46.9509 71.858C47.5748 71.6559 48.08 71.7455 48.4663 72.1269C48.7594 72.4375 48.9071 72.7846 48.9095 73.1683C48.926 73.5333 48.8139 73.8742 48.5731 74.1909C48.2474 74.6193 47.9183 74.8396 47.5858 74.8516C47.2674 74.8449 46.8771 74.7396 46.4148 74.5356C46.0598 74.3837 45.7817 74.3048 45.5804 74.2989C45.3746 74.2603 45.1867 74.3527 45.0168 74.5762C44.5353 75.2096 44.7328 76.2261 45.6092 77.6257C46.4812 78.9925 48.0526 80.8315 50.3235 83.1426L51.8382 84.6888L52.6465 83.4515C53.28 82.4635 53.6321 81.9229 53.7029 81.8298C53.7595 81.7553 53.8393 81.7277 53.9422 81.747C54.0265 81.7522 54.0988 81.7924 54.1592 81.8677C54.3031 82.065 54.4255 82.3488 54.5263 82.7191C54.6084 83.0752 54.5764 83.33 54.4303 83.4835C54.3878 83.5394 54.1735 83.7439 53.7874 84.0971C53.4013 84.4504 52.9842 84.883 52.5363 85.3949L61.743 94.8062C63.3531 96.4395 64.5293 97.8316 65.2714 98.9824C66.0278 100.115 66.4079 101.123 66.4119 102.007C66.4487 102.887 66.1484 103.746 65.5112 104.584C64.9447 105.33 64.3659 105.801 63.7747 105.998C63.1835 106.196 62.7112 106.102 62.3577 105.716C62.0691 105.438 61.9236 105.108 61.9213 104.724C61.9048 104.359 62.0098 104.027 62.2364 103.729C62.5337 103.338 62.8416 103.146 63.16 103.152C63.4783 103.159 63.8523 103.267 64.2818 103.475C64.5853 103.617 64.8306 103.701 65.0177 103.725C65.2049 103.75 65.3693 103.669 65.5109 103.483C65.6666 103.278 65.645 102.997 65.4458 102.64C65.2653 102.297 64.8308 101.747 64.1424 100.99C63.4727 100.246 62.3701 99.0864 60.8345 97.5096L52.0462 88.5922C51.6643 88.2436 51.4361 88.041 51.3616 87.9844C51.0074 87.7156 50.7221 87.646 50.506 87.7757C50.2711 87.8912 49.9201 88.2564 49.4528 88.8711C49.4103 88.927 49.3331 88.9125 49.2212 88.8276C49.0721 88.7144 49.0188 88.6299 49.0613 88.574C49.5427 87.9406 49.7987 87.4298 49.8292 87.0417C49.8551 86.6208 49.6634 86.1962 49.254 85.7679C47.2441 83.6549 45.8102 81.9057 44.9524 80.5202C44.0902 79.102 43.6835 77.8386 43.7324 76.73C43.7813 75.6214 44.2518 74.4803 45.144 73.3067Z" fill="#DE9E48"/>
<path d="M71.5218 82.5736C70.5063 83.6744 69.3593 84.1929 68.081 84.129C66.8185 84.048 65.6106 83.4763 64.4572 82.414C63.9752 81.97 63.5408 81.4745 63.154 80.9274C62.3129 79.8027 61.7338 78.6012 61.4166 77.3228C61.1153 76.0271 61.1058 74.7776 61.3882 73.5741C61.6533 72.3548 62.1904 71.3065 62.9997 70.4293C64.0311 69.3112 65.1773 68.7762 66.4385 68.8243C67.6996 68.8723 68.9069 69.4274 70.0602 70.4897C70.525 70.9178 70.968 71.4213 71.3892 72.0002C72.3005 73.2213 72.883 74.5055 73.1367 75.8527C73.4063 77.1827 73.3913 78.4415 73.0918 79.6291C72.7909 80.7837 72.2676 81.7652 71.5218 82.5736ZM71.6855 81.1018C72.2409 80.4998 72.4143 79.6732 72.2058 78.6222C71.9973 77.5711 71.4374 76.435 70.5261 75.2139C70.0519 74.5544 69.4877 73.9234 68.8335 73.3209C67.6974 72.2745 66.5681 71.6003 65.4458 71.2983C64.3393 70.9791 63.4766 71.1549 62.8578 71.8257C62.3183 72.4105 62.1362 73.2292 62.3117 74.2816C62.503 75.3168 63.0801 76.4687 64.043 77.7374C64.6549 78.5237 65.2105 79.1468 65.7097 79.6066C66.8631 80.6689 67.993 81.3596 69.0995 81.6788C70.2047 81.965 71.0667 81.7726 71.6855 81.1018Z" fill="#DE9E48"/>
<path d="M85.1555 69.0446C84.0265 70.0288 82.83 70.4199 81.5662 70.2179C80.3199 70.0004 79.1812 69.3011 78.15 68.1201C77.719 67.6265 77.341 67.0868 77.0159 66.501C76.3018 65.2918 75.8566 64.0346 75.6801 62.7293C75.5212 61.4087 75.6474 60.1655 76.0587 58.9998C76.4547 57.8164 77.1025 56.8325 78.0022 56.0482C79.1489 55.0485 80.3465 54.6409 81.5949 54.8254C82.8434 55.0098 83.9833 55.6926 85.0145 56.8736C85.4301 57.3495 85.8158 57.8981 86.1717 58.5191C86.945 59.8319 87.3847 61.1716 87.4906 62.5384C87.6142 63.8897 87.4627 65.1395 87.0359 66.2876C86.6115 67.4028 85.9847 68.3217 85.1555 69.0446ZM85.4781 67.5992C86.0955 67.0609 86.3576 66.2581 86.2645 65.1906C86.1713 64.1231 85.7381 62.9331 84.9647 61.6203C84.5649 60.9134 84.0725 60.2249 83.4877 59.5551C82.4719 58.3917 81.4225 57.599 80.3395 57.1772C79.2742 56.7399 78.3975 56.8212 77.7095 57.421C77.1097 57.9439 76.8399 58.7379 76.9 59.8031C76.9778 60.8529 77.4264 62.0606 78.2459 63.4262C78.7689 64.2742 79.2535 64.9538 79.6999 65.465C80.7311 66.6461 81.7794 67.4552 82.8447 67.8925C83.9123 68.2967 84.7901 68.199 85.4781 67.5992Z" fill="#DE9E48"/>
<path d="M103.833 50.1532C103.987 50.5012 104.131 50.7716 104.264 50.9642C104.596 51.4458 104.916 51.5804 105.225 51.3681C105.417 51.2354 105.589 50.9894 105.739 50.6302C105.876 50.2518 106.005 49.7372 106.125 49.0865C106.137 49.0214 106.153 48.9822 106.172 48.969C106.23 48.9292 106.304 48.9345 106.396 48.985C106.494 49.003 106.534 49.0608 106.516 49.1584C106.372 50.3935 106.176 51.3666 105.927 52.0776C105.678 52.7887 105.293 53.3234 104.773 53.6818C103.925 54.2657 103.142 54.0376 102.425 52.9973C102.212 52.6891 101.968 52.2321 101.693 51.6263L100.543 49.0937C100.863 51.2886 100.878 53.1669 100.591 54.7286C100.289 56.2711 99.6568 57.3741 98.6929 58.0377C97.9795 58.5288 97.2225 58.709 96.4217 58.5785C95.627 58.4154 94.8909 57.8426 94.2135 56.8601C93.9744 56.5134 93.7444 56.1178 93.5233 55.6735C92.8309 54.1332 92.4808 52.4708 92.473 50.6865C92.4652 48.9022 92.7681 47.2591 93.3816 45.7573C93.9951 44.2555 94.832 43.1396 95.8923 42.4097C96.3165 42.1177 96.7841 41.9094 97.2952 41.7848L94.279 34.998C94.1111 34.6307 93.954 34.3411 93.8079 34.1292C93.6087 33.8402 93.4144 33.6615 93.225 33.593C93.0357 33.5245 92.8349 33.5633 92.6229 33.7093C92.353 33.8951 92.0218 34.3219 91.6294 34.9898L91.5715 35.0296C91.4944 35.0827 91.413 35.0677 91.3273 34.9846C91.2416 34.9016 91.2307 34.8239 91.2945 34.7515L94.1111 29.7446L94.169 29.7047C94.2461 29.6517 94.3335 29.6341 94.4312 29.6521C94.5289 29.6701 94.5813 29.7049 94.5886 29.7568L103.833 50.1532ZM98.7101 55.3413C99.4042 54.8635 99.8465 54.0619 100.037 52.9364C100.214 51.7916 100.212 50.5718 100.03 49.2768C99.8478 47.9818 99.5682 46.8959 99.1912 46.0191L99.1006 45.8259C98.9532 45.5296 98.8463 45.3333 98.7799 45.237C98.3416 44.6013 97.8101 44.2428 97.1854 44.1615C96.5607 44.0801 95.9399 44.2518 95.323 44.6765C94.2759 45.4257 93.7012 46.4889 93.5989 47.8661C93.5158 49.2301 93.9074 50.8496 94.7738 52.7246C95.0154 53.2401 95.289 53.7193 95.5945 54.1624C96.1125 54.9137 96.6393 55.3891 97.1748 55.5886C97.6971 55.7688 98.2089 55.6864 98.7101 55.3413Z" fill="#DE9E48"/>
<path d="M128.952 25.0742C129.102 25.0068 129.22 25.0691 129.306 25.261C129.384 25.4316 129.377 25.7297 129.287 26.1554C129.187 26.5598 129.03 26.8101 128.817 26.9063C128.731 26.9448 128.334 27.0599 127.624 27.2515C126.914 27.4432 126.171 27.7016 125.393 28.0267L127.498 36.3555C127.559 36.6616 127.647 36.9425 127.763 37.1984C128.215 38.2006 128.986 38.4563 130.074 37.9655C130.928 37.5806 131.674 36.7308 132.313 35.416L132.345 35.4016C132.431 35.3631 132.52 35.3614 132.613 35.3965C132.705 35.4316 132.734 35.4956 132.699 35.5884C132.132 36.9479 131.566 37.9986 131.002 38.7405C130.45 39.4515 129.811 39.9706 129.085 40.2977C127.464 41.029 126.321 40.6591 125.656 39.1878C125.521 38.8893 125.409 38.555 125.319 38.185L123.436 30.6031C123.326 30.1904 123.219 29.8668 123.113 29.6323C122.968 29.3124 122.787 29.1377 122.568 29.1081C122.37 29.0688 122.037 29.155 121.567 29.3667C121.503 29.3956 121.442 29.3461 121.385 29.2181C121.308 29.0475 121.301 28.9478 121.365 28.9189C122.24 28.5244 122.876 27.9424 123.274 27.173C123.661 26.3822 123.854 25.4998 123.85 24.526C123.852 24.4737 123.918 24.4187 124.046 24.361C124.131 24.3225 124.226 24.3053 124.33 24.3095C124.425 24.2923 124.467 24.2992 124.455 24.3302L125.163 27.091C125.708 26.8195 126.2 26.572 126.638 26.3486C127.067 26.1039 127.448 25.8939 127.779 25.7186C128.284 25.4141 128.675 25.1993 128.952 25.0742Z" fill="#DE9E48"/>
<path d="M143.368 19.2366C144.165 18.9625 144.834 18.8931 145.376 19.0283C145.91 19.1415 146.265 19.4525 146.44 19.9612C146.79 20.9787 146.362 22.1777 145.153 23.5581C143.967 24.9309 142.388 26.167 140.414 27.2664C140.57 28.0046 140.704 28.5397 140.819 28.8715C141.284 30.2208 141.945 31.2056 142.802 31.8261C143.652 32.4244 144.619 32.537 145.704 32.164C146.213 31.9888 146.718 31.7287 147.218 31.3835C147.71 31.0162 148.128 30.5756 148.471 30.0618L148.504 30.0504C148.571 30.0275 148.637 30.0417 148.705 30.0928C148.794 30.1363 148.824 30.1878 148.795 30.2473C147.755 32.1883 146.306 33.4786 144.446 34.1182C142.985 34.6207 141.722 34.548 140.657 33.9C139.592 33.252 138.815 32.2201 138.328 30.8045C138.152 30.2957 138.013 29.7126 137.911 29.0552C137.728 27.8067 137.816 26.5149 138.173 25.1798C138.544 23.815 139.177 22.5955 140.069 21.5215C140.984 20.4399 142.084 19.6782 143.368 19.2366ZM143.76 21.8849C143.728 21.6485 143.701 21.4971 143.678 21.4308C143.548 21.0547 143.327 20.8091 143.015 20.6937C142.703 20.5784 142.37 20.5817 142.016 20.7035C141.197 20.9852 140.645 21.6823 140.359 22.7948C140.096 23.8997 140.08 25.2167 140.309 26.7458C142.885 25.1671 144.035 23.5468 143.76 21.8849Z" fill="#DE9E48"/>
<path d="M161.081 29.2492C159.532 29.6176 158.26 29.3791 157.265 28.5338C156.287 27.6603 155.613 26.4498 155.244 24.9023C155.114 24.3561 155.019 23.7054 154.96 22.95C154.896 21.5705 155.141 20.2739 155.694 19.0602C156.247 17.8465 156.994 16.8393 157.934 16.0385C158.869 15.2149 159.86 14.6786 160.908 14.4294C161.728 14.2344 162.488 14.2458 163.19 14.4636C163.909 14.6533 164.345 15.0667 164.496 15.7039C164.61 16.1819 164.566 16.6012 164.363 16.9621C164.177 17.2948 163.834 17.5207 163.333 17.6399C162.468 17.8457 161.844 17.5011 161.462 16.606C161.256 16.2462 161.024 15.9769 160.765 15.7981C160.5 15.5965 160.151 15.5471 159.719 15.6501C158.899 15.8451 158.296 16.4454 157.909 17.4511C157.541 18.4285 157.41 19.6498 157.519 21.115C157.561 21.8985 157.666 22.6429 157.834 23.3484C158.181 24.8049 158.757 25.9065 159.56 26.6532C160.381 27.3717 161.395 27.5874 162.602 27.3003C163.126 27.1757 163.657 26.9292 164.195 26.5607C164.727 26.1696 165.169 25.7518 165.521 25.3075L165.555 25.2994C165.623 25.2832 165.7 25.301 165.784 25.3531C165.869 25.4051 165.897 25.4706 165.867 25.5498C165.197 26.5749 164.444 27.4033 163.608 28.0351C162.789 28.6386 161.947 29.0433 161.081 29.2492Z" fill="#DE9E48"/>
<path d="M186.879 21.6931C186.92 21.6409 186.963 21.6118 187.01 21.606C187.08 21.5973 187.143 21.6364 187.202 21.7234C187.257 21.7872 187.254 21.8583 187.193 21.9367C186.52 22.9643 185.909 23.7365 185.361 24.2533C184.812 24.7702 184.213 25.0694 183.562 25.1511C183.051 25.2152 182.649 25.1125 182.356 24.8428C182.085 24.5703 181.912 24.1322 181.836 23.5287C181.79 23.1574 181.781 22.6162 181.809 21.9053L182.124 16.2427C182.17 15.671 182.158 15.1067 182.088 14.5496C181.936 13.3427 181.453 12.7902 180.64 12.8923C179.967 12.9769 179.312 13.4952 178.677 14.4474C178.065 15.3966 177.539 16.7476 177.098 18.5004C176.655 20.2301 176.368 22.2585 176.236 24.5856L176.197 25.4039C176.133 25.8363 175.602 26.1152 174.603 26.2406C173.906 26.3281 173.548 26.2906 173.527 26.1281L173.57 25.3447C173.665 24.2246 173.716 23.5935 173.722 23.4513L174.803 4.7484C174.823 4.34506 174.817 4.01574 174.785 3.76042C174.741 3.41226 174.651 3.16423 174.514 3.01633C174.378 2.86844 174.182 2.81054 173.926 2.84262C173.601 2.88345 173.11 3.11009 172.454 3.52254L172.385 3.53129C172.315 3.54004 172.249 3.4893 172.188 3.37908C172.151 3.26594 172.177 3.19194 172.267 3.15706L177.039 0.0115637L177.108 0.00281403C177.201 -0.00885223 177.287 0.0157556 177.365 0.0766375C177.467 0.134604 177.509 0.188257 177.492 0.237596L176.55 18.3572C177.097 16.1429 177.832 14.3884 178.755 13.0937C179.7 11.7961 180.777 11.0715 181.985 10.9198C183.541 10.7244 184.438 11.5667 184.674 13.4468C184.73 13.8878 184.746 14.487 184.723 15.2443L184.353 21.586C184.327 21.9429 184.329 22.2374 184.358 22.4695C184.434 23.073 184.669 23.3499 185.064 23.3003C185.482 23.2478 186.087 22.7121 186.879 21.6931Z" fill="#DE9E48"/>
<path d="M209.102 21.0745C209.148 21.0274 209.183 21.0039 209.207 21.0037C209.277 21.0033 209.336 21.0498 209.383 21.1431C209.454 21.2129 209.454 21.2831 209.384 21.3537C208.593 22.2937 207.895 22.9876 207.289 23.4354C206.682 23.8832 206.051 24.1088 205.396 24.1124C204.881 24.1152 204.494 23.9652 204.235 23.6625C203.999 23.3597 203.879 22.9042 203.876 22.2959C203.874 21.9216 203.929 21.3833 204.043 20.6809L205.031 15.0961C205.145 14.534 205.2 13.9723 205.197 13.4109C205.191 12.1944 204.778 11.5884 203.958 11.5929C203.256 11.5967 202.532 12.0451 201.788 12.9381C201.067 13.831 200.384 15.133 199.737 16.8443C199.091 18.5321 198.564 20.5586 198.155 22.9235L198.053 23.4855C197.938 23.9073 197.377 24.1208 196.371 24.1263C195.668 24.1301 195.317 24.0502 195.316 23.8864L195.452 23.1137C195.68 22.0129 195.806 21.3923 195.828 21.2518L197.225 13.4191C197.271 13.2083 197.293 12.9391 197.291 12.6116C197.288 11.9332 197.075 11.5952 196.654 11.5974C196.139 11.6002 195.427 12.0954 194.52 13.0828C194.496 13.1064 194.461 13.1182 194.414 13.1185C194.344 13.1189 194.274 13.0842 194.203 13.0144C194.156 12.9211 194.167 12.8391 194.237 12.7686C195.051 11.805 195.785 11.0992 196.438 10.6512C197.114 10.203 197.78 9.97717 198.436 9.97361C198.951 9.97081 199.326 10.1208 199.562 10.4237C199.821 10.703 199.952 11.1468 199.956 11.755C199.957 11.9421 199.912 12.3868 199.822 13.0891L199.209 16.6015C200.017 14.4449 200.968 12.7788 202.062 11.6032C203.156 10.4042 204.311 9.80134 205.529 9.79473C207.097 9.78621 207.887 10.7294 207.897 12.6242C207.899 13.0687 207.844 13.6655 207.731 14.4147L206.606 20.6669C206.538 21.0182 206.504 21.3108 206.506 21.5448C206.509 22.153 206.71 22.456 207.108 22.4538C207.529 22.4515 208.194 21.9918 209.102 21.0745Z" fill="#DE9E48"/>
<path d="M220.173 25.1522C218.684 24.9898 217.585 24.3758 216.877 23.3103C216.192 22.2473 215.935 20.9367 216.105 19.3786C216.176 18.7275 216.317 18.084 216.528 17.448C216.934 16.1039 217.557 14.9246 218.398 13.9103C219.262 12.8985 220.263 12.1487 221.399 11.6608C222.538 11.1496 223.701 10.9588 224.888 11.0882C226.401 11.2531 227.513 11.8568 228.223 12.8991C228.934 13.9413 229.204 15.2415 229.034 16.7996C228.965 17.4275 228.823 18.0827 228.607 18.7651C228.165 20.223 227.477 21.454 226.543 22.4582C225.633 23.4649 224.61 24.2006 223.476 24.6653C222.368 25.1092 221.267 25.2715 220.173 25.1522ZM221.455 24.4096C222.27 24.4984 223.038 24.1469 223.761 23.3549C224.483 22.563 225.065 21.4381 225.507 19.9802C225.756 19.2073 225.929 18.379 226.026 17.4953C226.193 15.9604 226.065 14.6522 225.642 13.5706C225.241 12.4916 224.587 11.9025 223.68 11.8036C222.888 11.7173 222.121 12.0572 221.378 12.8233C220.658 13.592 220.074 14.7402 219.624 16.2678C219.355 17.2268 219.183 18.0435 219.109 18.7179C218.939 20.276 219.054 21.5946 219.455 22.6736C219.881 23.732 220.548 24.3106 221.455 24.4096Z" fill="#DE9E48"/>
<path d="M237.037 27.4693C236.51 27.3619 236.15 27.1334 235.958 26.784C235.79 26.4393 235.769 25.9575 235.895 25.3386C235.965 24.9948 236.128 24.4907 236.383 23.8264L243.194 6.94995C243.343 6.5743 243.445 6.24894 243.501 5.97388C243.632 5.33206 243.468 4.96443 243.009 4.87098C242.688 4.80557 242.151 4.86322 241.397 5.04396L241.328 5.02994C241.236 5.01125 241.191 4.94227 241.191 4.82298C241.192 4.7037 241.24 4.64194 241.337 4.63771L246.865 3.18541L246.934 3.19942C247.026 3.21811 247.099 3.26885 247.154 3.35163C247.232 3.43909 247.254 3.5034 247.222 3.54457L238.929 24.3451C238.79 24.6749 238.695 24.9659 238.643 25.218C238.526 25.7911 238.652 26.115 239.019 26.1897C239.431 26.2738 240.176 25.96 241.253 25.2483C241.309 25.2118 241.359 25.1982 241.405 25.2076C241.474 25.2216 241.522 25.2791 241.549 25.3801C241.581 25.4582 241.555 25.5247 241.473 25.5794C240.506 26.3374 239.68 26.8735 238.994 27.1875C238.309 27.5015 237.657 27.5955 237.037 27.4693Z" fill="#DE9E48"/>
<path d="M252.215 31.3392C250.78 30.9061 249.813 30.1009 249.313 28.9235C248.836 27.7529 248.824 26.4174 249.278 24.9171C249.467 24.2901 249.724 23.6834 250.048 23.097C250.694 21.8502 251.524 20.8055 252.537 19.9628C253.572 19.1269 254.694 18.5734 255.901 18.3025C257.114 18.0092 258.293 18.0351 259.436 18.3802C260.892 18.8201 261.874 19.6175 262.381 20.7725C262.887 21.9275 262.914 23.2552 262.46 24.7555C262.277 25.3601 262.017 25.978 261.679 26.6092C260.977 27.9611 260.074 29.0449 258.972 29.8606C257.891 30.6829 256.751 31.2184 255.551 31.4669C254.38 31.6998 253.268 31.6573 252.215 31.3392ZM253.611 30.8446C254.396 31.0814 255.216 30.877 256.072 30.2311C256.927 29.5853 257.706 28.5864 258.409 27.2345C258.796 26.5205 259.118 25.738 259.375 24.8871C259.822 23.4091 259.937 22.0997 259.72 20.9587C259.525 19.8245 258.99 19.1255 258.116 18.8616C257.354 18.6315 256.537 18.8248 255.666 19.4414C254.817 20.0649 254.031 21.0862 253.309 22.5053C252.867 23.3984 252.549 24.1697 252.352 24.8191C251.898 26.3194 251.769 27.6367 251.964 28.7709C252.188 29.8894 252.737 30.5807 253.611 30.8446Z" fill="#DE9E48"/>
<path d="M283.506 27.6774C283.614 27.7229 283.604 27.8965 283.476 28.1982C283.34 28.5215 283.14 28.8436 282.878 29.1644C282.636 29.4944 282.486 29.6089 282.427 29.5079C281.941 28.7948 281.223 28.2381 280.274 27.8378C280.494 28.6414 280.403 29.5173 280.003 30.4656C279.82 30.8966 279.609 31.2771 279.368 31.6071C278.773 32.4735 278.03 33.1502 277.138 33.6374C276.277 34.112 275.36 34.3858 274.389 34.4586C273.449 34.519 272.569 34.3763 271.749 34.0306C271.598 33.9669 271.381 33.8499 271.097 33.6794C270.767 33.9208 270.533 34.2031 270.396 34.5264C270.187 35.0221 270.231 35.5486 270.53 36.1061C270.858 36.651 271.391 37.3454 272.127 38.1892C272.783 38.9229 273.295 39.5452 273.664 40.0562C274.045 40.5978 274.308 41.1785 274.452 41.7982C274.61 42.4486 274.552 43.097 274.279 43.7436C273.887 44.6703 273.208 45.3743 272.243 45.8557C271.277 46.3371 270.168 46.555 268.917 46.5096C267.656 46.4857 266.401 46.2099 265.15 45.6823C263.597 45.0272 262.51 44.2007 261.89 43.2026C261.239 42.2171 261.114 41.2502 261.514 40.3019C261.605 40.0864 261.685 39.9293 261.752 39.8306C262.252 39.1275 263.021 38.6012 264.058 38.2515C265.073 37.8927 266.379 37.6307 267.973 37.4654C267.433 36.5775 267.282 35.8534 267.519 35.293C267.719 34.8189 268.067 34.4453 268.564 34.1723C269.07 33.8778 269.755 33.6083 270.621 33.364C269.988 32.8176 269.604 32.1608 269.471 31.3936C269.368 30.614 269.495 29.8039 269.85 28.9633C269.959 28.7047 270.166 28.335 270.471 27.8541C271.303 26.6056 272.435 25.7624 273.865 25.3246C275.304 24.8652 276.703 24.9221 278.062 25.4953C278.968 25.8774 279.616 26.4176 280.007 27.1158C281.369 27.0808 282.535 27.268 283.506 27.6774ZM276.704 31.0548C276.948 30.5989 277.124 30.2416 277.233 29.983C277.634 29.0347 277.824 28.1629 277.805 27.3674C277.816 26.5595 277.541 26.0372 276.98 25.8007C276.441 25.5732 275.794 25.7196 275.041 26.2397C274.297 26.7383 273.652 27.4821 273.107 28.4711C272.87 28.8533 272.669 29.2383 272.505 29.6262C272.095 30.5961 271.92 31.4617 271.979 32.2232C272.06 32.9938 272.36 33.4882 272.877 33.7066C273.417 33.934 274.039 33.8155 274.743 33.3509C275.457 32.8647 276.11 32.0994 276.704 31.0548ZM271.413 44.2107C271.741 43.4348 271.707 42.6717 271.313 41.9212C270.918 41.1708 270.268 40.2743 269.361 39.2318C268.77 38.5254 268.401 38.0774 268.252 37.8878C267.352 38.0923 266.569 38.3838 265.9 38.7622C265.254 39.1496 264.771 39.7205 264.453 40.4748C264.061 41.4016 264.126 42.3304 264.648 43.2614C265.169 44.1924 266.012 44.9035 267.177 45.3948C268.234 45.8406 269.126 45.9248 269.853 45.6475C270.592 45.4008 271.112 44.9219 271.413 44.2107Z" fill="#DE9E48"/>
<path d="M300.329 36.5803C300.799 36.8434 301.059 37.217 301.109 37.7012C301.18 38.1968 301.038 38.7609 300.683 39.3935C299.802 40.9648 297.686 42.8234 294.335 44.9693C290.996 47.0949 287.599 48.7726 284.145 50.0024C280.69 51.2323 278.289 51.4698 276.942 50.7149C275.859 50.1087 275.564 49.3669 276.056 48.4894C276.136 48.3465 276.21 48.24 276.276 48.1698C276.575 47.8279 276.925 47.6349 277.325 47.591C277.705 47.5356 278.109 47.628 278.538 47.8682C278.865 48.0512 279.223 48.3457 279.613 48.7516C280.034 49.1485 280.368 49.4156 280.613 49.5529C281.021 49.7816 281.52 49.8733 282.109 49.8278C282.898 49.7603 284.048 49.3852 285.558 48.7024L286.348 47.2944C288.569 43.3355 290.006 40.1042 290.659 37.6004C291.312 35.0967 291.138 33.5646 290.137 33.0041C289.872 32.8554 289.555 32.7986 289.186 32.8336C288.838 32.88 288.486 33.0047 288.131 33.2079C288.076 33.2577 287.997 33.254 287.895 33.1968C287.752 33.1167 287.725 33.0212 287.815 32.9102C288.606 32.361 289.444 32.0393 290.329 31.9449C291.225 31.8301 291.969 31.9386 292.562 32.2703C293.358 32.7163 293.789 33.5746 293.855 34.845C293.932 36.095 293.672 37.6118 293.074 39.3955C292.476 41.1792 291.616 43.0709 290.494 45.0708C290.059 45.8462 289.717 46.4323 289.467 46.829C291.006 46.0009 292.413 45.1666 293.689 44.3262C294.966 43.4857 295.842 42.8096 296.317 42.2979C296.636 41.9674 296.922 41.5776 297.174 41.1287C297.414 40.7002 297.559 40.2985 297.608 39.9238C297.678 39.5605 297.708 39.1482 297.698 38.6869C297.684 38.3302 297.693 38.0269 297.725 37.777C297.779 37.5387 297.868 37.3072 297.994 37.0828C298.223 36.6746 298.549 36.4282 298.972 36.3435C299.407 36.2383 299.859 36.3173 300.329 36.5803Z" fill="#DE9E48"/>
<path d="M309.144 66.0271C309.038 66.1219 308.848 66.0594 308.574 65.8397C308.41 65.7079 308.277 65.556 308.175 65.3841C308.058 65.2304 308.038 65.1244 308.115 65.0661L331.754 44.341C331.845 44.2644 332.028 44.336 332.302 44.5557C332.484 44.7022 332.627 44.8614 332.729 45.0333C332.846 45.187 332.865 45.293 332.789 45.3513L309.144 66.0271Z" fill="#DE9E48"/>
<path d="M346.707 92.3916C346.773 92.3968 346.821 92.4171 346.851 92.4527C346.897 92.5061 346.899 92.581 346.858 92.6773C346.835 92.7585 346.774 92.7951 346.675 92.7873C345.446 92.79 344.465 92.7043 343.731 92.5304C342.998 92.3564 342.426 92.0292 342.015 91.5488C341.666 91.1396 341.531 90.7473 341.61 90.372C341.69 89.9966 341.979 89.5963 342.477 89.171C342.851 88.852 343.273 88.5534 343.744 88.2752L348.674 85.4532C349.32 85.0561 349.785 84.736 350.07 84.493C350.996 83.7031 351.216 83.0235 350.729 82.4542C350.334 81.9916 349.588 81.7669 348.491 81.78C347.427 81.7956 346.075 82.0873 344.436 82.655C342.797 83.2227 340.987 84.0755 339.004 85.2135L337.985 85.8052C337.619 86.0253 337.094 85.735 336.41 84.9344C335.954 84.4006 335.788 84.0806 335.913 83.9743C336.035 83.9009 336.348 83.7264 336.851 83.4509C337.37 83.1931 337.839 82.9314 338.258 82.6658L343.685 79.5592C344.295 79.1925 344.742 78.8876 345.027 78.6446C345.971 77.8396 346.184 77.1346 345.667 76.5297C345.272 76.0671 344.517 75.85 343.402 75.8782C342.287 75.9065 340.902 76.2121 339.245 76.7949C337.621 77.3804 335.843 78.2359 333.911 79.3612L332.946 79.9074C332.55 80.0918 332.025 79.8015 331.371 79.0365C330.915 78.5028 330.749 78.1827 330.874 78.0764L331.629 77.663L333.166 76.8135L340.11 72.7813C340.3 72.6801 340.52 72.5232 340.77 72.3106C341.286 71.8701 341.407 71.4897 341.134 71.1695C340.799 70.7781 339.962 70.5544 338.621 70.4985C338.588 70.4959 338.556 70.4768 338.526 70.4412C338.48 70.3879 338.461 70.3117 338.469 70.2128C338.51 70.1164 338.58 70.0722 338.679 70.08C339.941 70.0799 340.954 70.1846 341.718 70.3942C342.497 70.6216 343.1 70.9843 343.525 71.4825C343.86 71.8739 343.987 72.2573 343.908 72.6326C343.861 73.0106 343.606 73.3971 343.144 73.792C343.001 73.9135 342.632 74.1665 342.037 74.551L339.215 76.2202C341.317 75.4732 343.13 75.1266 344.653 75.1804C346.192 75.2519 347.341 75.7324 348.101 76.622C349.059 77.7428 348.834 78.9033 347.428 80.1032C346.947 80.5133 346.446 80.8638 345.925 81.1545L344.281 82.0952C346.38 81.3813 348.192 81.0512 349.715 81.1049C351.254 81.1764 352.388 81.6392 353.118 82.4931C354.09 83.6318 353.882 84.7935 352.494 85.9783C352.066 86.3428 351.54 86.6996 350.915 87.0485L345.431 90.25C345.118 90.4245 344.873 90.5877 344.695 90.7396C344.232 91.1345 344.13 91.4832 344.388 91.7857C344.646 92.0881 345.419 92.2901 346.707 92.3916Z" fill="#DE9E48"/>
<path d="M358.153 109.869C358.185 109.876 358.214 109.899 358.239 109.939C358.277 109.998 358.269 110.072 358.215 110.162C358.181 110.239 358.132 110.271 358.067 110.257C356.882 110.097 355.922 109.876 355.187 109.596C354.472 109.302 353.957 108.909 353.642 108.416C353.352 107.963 353.267 107.546 353.385 107.165C353.522 106.772 353.877 106.393 354.45 106.028C354.864 105.764 355.304 105.539 355.768 105.353L358.401 104.257C356.24 104.526 354.329 104.426 352.669 103.958C351.022 103.51 349.877 102.783 349.235 101.777C348.844 101.166 348.72 100.58 348.861 100.018C349.022 99.4435 349.477 98.9172 350.227 98.4389C351.589 97.5705 353.32 97.0631 355.42 96.9167C357.553 96.7775 359.556 96.999 361.428 97.5814C363.332 98.1709 364.649 99.0375 365.38 100.181C365.619 100.556 365.783 100.965 365.871 101.408C365.992 101.858 366.006 102.293 365.914 102.713C366.501 102.893 367.019 102.965 367.468 102.929C367.533 102.943 367.578 102.97 367.603 103.009C367.64 103.069 367.659 103.14 367.657 103.225C367.675 103.296 367.668 103.329 367.635 103.322L357.185 107.572C356.852 107.701 356.586 107.829 356.389 107.955C356.152 108.106 355.99 108.265 355.902 108.432C355.814 108.599 355.814 108.752 355.902 108.89C356.142 109.264 356.892 109.591 358.153 109.869ZM352.198 102.177C352.652 102.887 353.522 103.359 354.81 103.592C356.11 103.845 357.487 103.869 358.939 103.664C360.391 103.46 361.522 103.099 362.331 102.583C362.943 102.193 363.322 101.743 363.469 101.233C363.635 100.711 363.542 100.174 363.189 99.6217C362.786 98.9907 362.139 98.543 361.248 98.2787C360.377 98.0018 359.359 97.9296 358.193 98.0621C357.061 98.2018 355.895 98.529 354.696 99.0438C354.172 99.267 353.693 99.517 353.259 99.7939C352.035 100.574 351.682 101.369 352.198 102.177Z" fill="#DE9E48"/>
<path d="M375.716 119.399C375.966 119.901 376.018 120.477 375.87 121.125C375.723 121.774 375.387 122.176 374.863 122.332C374.549 122.436 374.209 122.436 373.842 122.33C373.497 122.215 373.241 121.99 373.074 121.654C372.886 121.278 372.887 120.807 373.076 120.242C373.118 120.064 373.15 119.892 373.171 119.724C373.192 119.557 373.166 119.4 373.093 119.254C372.895 118.856 372.078 118.661 370.644 118.669C369.231 118.667 367.592 118.816 365.728 119.117C363.885 119.407 362.303 119.749 360.983 120.145C360.795 120.187 360.58 120.097 360.34 119.877C360.11 119.678 359.885 119.359 359.666 118.919C359.353 118.291 359.27 117.94 359.416 117.867L360.155 117.696C360.343 117.654 360.589 117.597 360.893 117.524C361.218 117.441 361.595 117.332 362.024 117.196L369.22 115.105C369.807 114.917 370.174 114.787 370.32 114.714C370.991 114.38 371.222 114.004 371.013 113.585C370.784 113.125 370.067 112.71 368.864 112.342C368.832 112.332 368.806 112.305 368.785 112.264C368.754 112.201 368.759 112.133 368.801 112.06C368.864 111.976 368.937 111.939 369.021 111.95C370.225 112.266 371.156 112.612 371.815 112.99C372.485 113.389 372.965 113.881 373.258 114.467C373.498 114.949 373.523 115.368 373.334 115.723C373.177 116.089 372.804 116.418 372.218 116.71C371.861 116.887 371.343 117.08 370.662 117.288L366.765 118.443C369.08 118.049 371.048 117.906 372.671 118.013C374.294 118.12 375.309 118.582 375.716 119.399Z" fill="#DE9E48"/>
<path d="M373.793 144.52C373.823 144.534 373.846 144.563 373.863 144.607C373.896 144.694 373.876 144.776 373.805 144.853C373.756 144.921 373.697 144.931 373.628 144.882C371.42 144.06 370.155 143.223 369.835 142.369C369.621 141.799 369.589 141.249 369.74 140.718C369.921 140.2 370.333 139.533 370.977 138.717L373.484 135.604C373.717 135.292 373.863 135.05 373.924 134.877C373.984 134.705 373.973 134.509 373.891 134.29L367.931 135.399C367.495 135.437 367.101 134.986 366.747 134.044C366.501 133.387 366.454 133.029 366.607 132.972L367.38 132.832C368.493 132.665 369.119 132.568 369.258 132.541L387.717 129.258C388.114 129.184 388.434 129.102 388.675 129.011C389.004 128.888 389.224 128.743 389.336 128.576C389.449 128.409 389.46 128.205 389.369 127.964C389.254 127.657 388.92 127.233 388.366 126.691L388.342 126.625C388.317 126.559 388.351 126.484 388.444 126.399C388.546 126.336 388.624 126.345 388.679 126.424L392.847 130.333L392.871 130.399C392.904 130.487 392.9 130.576 392.859 130.666C392.826 130.778 392.784 130.832 392.732 130.826L378.913 133.382C379.977 133.883 380.904 134.522 381.696 135.3C382.51 136.069 383.09 136.914 383.435 137.833C383.723 138.6 383.76 139.198 383.546 139.628C383.34 140.08 383.008 140.392 382.547 140.565C381.692 140.885 380.663 140.709 379.46 140.035C378.257 139.362 377.028 138.286 375.773 136.807L373.09 140.249C372.531 140.958 372.184 141.5 372.05 141.876C371.924 142.273 371.927 142.646 372.058 142.997C372.247 143.501 372.825 144.008 373.793 144.52ZM381.45 136.441C381.088 135.478 380.299 134.774 379.082 134.331C377.873 133.909 376.449 133.843 374.807 134.134L374.487 134.179C375.553 135.753 376.534 136.835 377.43 137.423C378.348 138.004 379.299 138.172 380.282 137.928C381.332 137.66 381.721 137.164 381.45 136.441Z" fill="#DE9E48"/>
<path d="M388.687 155.615C388.9 156.43 388.918 157.102 388.742 157.632C388.589 158.155 388.252 158.485 387.731 158.621C386.689 158.893 385.525 158.375 384.239 157.066C382.959 155.781 381.845 154.113 380.898 152.063C380.149 152.162 379.605 152.256 379.266 152.344C377.884 152.705 376.851 153.289 376.167 154.097C375.505 154.898 375.319 155.853 375.609 156.962C375.745 157.483 375.967 158.005 376.273 158.53C376.602 159.048 377.01 159.498 377.497 159.878L377.506 159.912C377.524 159.98 377.505 160.046 377.448 160.109C377.398 160.194 377.345 160.22 377.287 160.187C375.429 159.004 374.252 157.462 373.755 155.56C373.364 154.067 373.532 152.814 374.26 151.802C374.987 150.79 376.076 150.094 377.526 149.716C378.047 149.58 378.639 149.486 379.303 149.433C380.562 149.346 381.845 149.531 383.15 149.988C384.484 150.462 385.653 151.185 386.657 152.156C387.667 153.149 388.343 154.302 388.687 155.615ZM386.014 155.805C386.253 155.791 386.406 155.775 386.474 155.758C386.859 155.657 387.121 155.456 387.259 155.154C387.398 154.851 387.42 154.519 387.325 154.157C387.106 153.32 386.453 152.717 385.364 152.348C384.282 152.002 382.969 151.885 381.425 151.998C382.805 154.684 384.335 155.953 386.014 155.805Z" fill="#DE9E48"/>
<path d="M391.942 175.097C391.969 175.258 391.878 175.356 391.67 175.39C391.485 175.421 391.199 175.337 390.81 175.141C390.445 174.94 390.243 174.724 390.205 174.493C390.19 174.401 390.181 173.988 390.179 173.253C390.176 172.518 390.118 171.734 390.005 170.899L381.408 170.784C381.097 170.764 380.802 170.777 380.525 170.823C379.439 171.001 378.993 171.679 379.187 172.856C379.339 173.78 379.969 174.719 381.075 175.675L381.081 175.71C381.096 175.802 381.075 175.889 381.017 175.969C380.959 176.05 380.89 176.061 380.809 176.004C379.641 175.105 378.771 174.288 378.199 173.553C377.654 172.836 377.316 172.086 377.187 171.301C376.898 169.546 377.55 168.538 379.144 168.276C379.468 168.223 379.82 168.2 380.201 168.209L388.018 168.345C388.445 168.346 388.786 168.326 389.04 168.284C389.386 168.227 389.602 168.096 389.687 167.893C389.776 167.712 389.779 167.368 389.695 166.86C389.684 166.791 389.747 166.745 389.886 166.722C390.071 166.692 390.169 166.711 390.18 166.78C390.336 167.727 390.735 168.491 391.376 169.073C392.041 169.651 392.845 170.064 393.787 170.312C393.837 170.328 393.874 170.405 393.896 170.543C393.912 170.635 393.904 170.732 393.873 170.832C393.865 170.928 393.847 170.966 393.821 170.947L390.969 170.918C391.091 171.515 391.203 172.053 391.306 172.534C391.432 173.011 391.537 173.433 391.621 173.798C391.786 174.364 391.892 174.797 391.942 175.097Z" fill="#DE9E48"/>
<path d="M393.971 206.01C393.968 206.571 393.754 207.108 393.33 207.621C392.906 208.133 392.425 208.341 391.887 208.245C391.559 208.196 391.256 208.042 390.976 207.784C390.72 207.525 390.593 207.208 390.595 206.834C390.597 206.413 390.81 205.993 391.234 205.574C391.352 205.435 391.458 205.295 391.552 205.155C391.647 205.015 391.694 204.863 391.695 204.699C391.697 204.255 391.056 203.714 389.772 203.075C388.511 202.437 386.981 201.832 385.181 201.261C383.405 200.69 381.839 200.284 380.482 200.043C380.295 199.996 380.144 199.819 380.028 199.515C379.913 199.233 379.856 198.847 379.859 198.356C379.863 197.654 379.946 197.303 380.11 197.304L380.847 197.484C381.034 197.531 381.279 197.591 381.583 197.663C381.911 197.735 382.297 197.807 382.741 197.88L390.108 199.252C390.717 199.349 391.103 199.398 391.267 199.399C392.016 199.403 392.392 199.171 392.394 198.703C392.397 198.188 391.944 197.496 391.035 196.625C391.012 196.602 391.001 196.567 391.001 196.52C391.001 196.45 391.037 196.391 391.107 196.345C391.201 196.299 391.283 196.299 391.353 196.346C392.285 197.17 392.96 197.899 393.378 198.532C393.796 199.19 394.003 199.846 394 200.501C393.997 201.039 393.831 201.424 393.502 201.656C393.196 201.912 392.716 202.038 392.06 202.035C391.662 202.032 391.113 201.971 390.411 201.85L386.411 201.127C388.655 201.818 390.477 202.576 391.878 203.402C393.278 204.228 393.976 205.098 393.971 206.01Z" fill="#DE9E48"/>
<path d="M392.806 223.717C392.719 224.555 392.501 225.19 392.15 225.625C391.822 226.061 391.39 226.252 390.855 226.196C389.783 226.085 388.876 225.192 388.131 223.516C387.385 221.863 386.928 219.911 386.761 217.659C386.025 217.489 385.483 217.386 385.134 217.35C383.713 217.203 382.541 217.387 381.616 217.903C380.715 218.422 380.206 219.251 380.088 220.391C380.032 220.926 380.056 221.493 380.159 222.092C380.285 222.693 380.509 223.257 380.831 223.784L380.827 223.819C380.82 223.889 380.779 223.943 380.704 223.982C380.627 224.045 380.568 224.051 380.526 223.999C379.202 222.24 378.641 220.382 378.843 218.428C379.003 216.892 379.6 215.778 380.637 215.086C381.674 214.393 382.937 214.124 384.428 214.278C384.963 214.334 385.551 214.453 386.191 214.637C387.401 214.997 388.537 215.62 389.599 216.506C390.681 217.418 391.522 218.504 392.121 219.766C392.717 221.05 392.946 222.367 392.806 223.717ZM390.237 222.957C390.465 223.028 390.614 223.067 390.684 223.074C391.08 223.115 391.396 223.018 391.632 222.784C391.868 222.55 392.005 222.246 392.044 221.874C392.133 221.013 391.733 220.219 390.843 219.492C389.951 218.789 388.762 218.219 387.278 217.783C387.626 220.782 388.612 222.507 390.237 222.957Z" fill="#DE9E48"/>
<path d="M376.691 233.752C376.88 232.811 377.25 232.039 377.802 231.434C378.349 230.851 378.921 230.62 379.517 230.74C379.999 230.837 380.339 231.048 380.536 231.374C380.733 231.7 380.793 232.058 380.714 232.448C380.65 232.769 380.493 233.012 380.245 233.177C379.993 233.365 379.662 233.525 379.253 233.658C378.711 233.859 378.298 234.074 378.013 234.303C377.728 234.533 377.535 234.899 377.434 235.404C377.337 235.886 377.392 236.267 377.598 236.547C377.823 236.854 378.201 237.109 378.734 237.311C378.821 237.353 378.956 237.392 379.14 237.429C379.829 237.567 380.455 237.478 381.02 237.162C381.604 236.873 382.272 236.399 383.026 235.739C383.853 235.07 384.546 234.589 385.107 234.296C385.667 234.002 386.292 233.925 386.98 234.063C387.669 234.201 388.279 234.551 388.811 235.111C389.339 235.694 389.722 236.403 389.96 237.238C390.193 238.096 390.22 238.972 390.04 239.867C389.837 240.876 389.492 241.642 389.005 242.165C388.518 242.687 387.995 242.857 387.435 242.673C387.058 242.525 386.783 242.291 386.609 241.97C386.457 241.653 386.414 241.334 386.479 241.013C386.562 240.6 386.716 240.309 386.941 240.14C387.166 239.97 387.494 239.821 387.926 239.693C388.358 239.565 388.688 239.405 388.918 239.212C389.166 239.047 389.334 238.747 389.422 238.311C389.505 237.898 389.457 237.543 389.278 237.244C389.122 236.951 388.877 236.746 388.542 236.631C388.454 236.59 388.319 236.551 388.135 236.514C387.538 236.394 386.96 236.481 386.399 236.774C385.839 237.067 385.173 237.53 384.401 238.163C383.524 238.845 382.779 239.34 382.168 239.647C381.58 239.959 380.931 240.043 380.219 239.9C379.576 239.771 378.934 239.404 378.292 238.797C377.672 238.196 377.202 237.445 376.882 236.546C376.556 235.669 376.493 234.738 376.691 233.752Z" fill="#DE9E48"/>
<path d="M385.084 259.208C384.84 260.014 384.505 260.597 384.078 260.957C383.674 261.324 383.214 261.43 382.698 261.274C381.667 260.963 380.945 259.914 380.531 258.127C380.111 256.363 380.031 254.36 380.294 252.118C379.603 251.812 379.09 251.608 378.754 251.506C377.387 251.094 376.201 251.053 375.196 251.385C374.213 251.724 373.556 252.442 373.224 253.539C373.068 254.055 372.984 254.616 372.972 255.223C372.982 255.837 373.095 256.433 373.312 257.012L373.301 257.045C373.281 257.112 373.231 257.158 373.15 257.183C373.062 257.23 373.003 257.224 372.972 257.166C372.004 255.187 371.805 253.258 372.374 251.377C372.82 249.899 373.618 248.918 374.767 248.434C375.916 247.95 377.208 247.924 378.642 248.357C379.158 248.512 379.712 248.741 380.306 249.042C381.426 249.625 382.424 250.451 383.298 251.522C384.189 252.621 384.809 253.847 385.158 255.199C385.501 256.573 385.476 257.909 385.084 259.208ZM382.704 257.977C382.915 258.089 383.054 258.156 383.121 258.176C383.502 258.291 383.831 258.256 384.107 258.07C384.383 257.885 384.575 257.613 384.684 257.255C384.934 256.426 384.691 255.571 383.955 254.689C383.212 253.829 382.153 253.045 380.778 252.337C380.552 255.348 381.194 257.228 382.704 257.977Z" fill="#DE9E48"/>
<path d="M366.058 277.131C366.07 277.161 366.068 277.198 366.049 277.241C366.022 277.306 365.956 277.342 365.852 277.348C365.769 277.364 365.715 277.342 365.69 277.28C365.149 276.214 364.786 275.299 364.6 274.536C364.436 273.781 364.468 273.134 364.695 272.595C364.905 272.1 365.2 271.792 365.58 271.673C365.982 271.564 366.496 271.641 367.122 271.904C367.575 272.095 368.009 272.33 368.426 272.607L370.823 274.151C369.375 272.525 368.373 270.896 367.817 269.265C367.252 267.655 367.201 266.301 367.665 265.202C367.947 264.534 368.36 264.098 368.903 263.896C369.467 263.702 370.16 263.778 370.979 264.124C372.468 264.751 373.868 265.888 375.181 267.533C376.506 269.209 377.459 270.982 378.042 272.853C378.636 274.754 378.67 276.329 378.142 277.579C377.969 277.989 377.725 278.356 377.41 278.68C377.108 279.035 376.757 279.294 376.359 279.456C376.543 280.041 376.778 280.508 377.063 280.857C377.088 280.918 377.091 280.97 377.073 281.013C377.045 281.078 376.997 281.134 376.926 281.18C376.877 281.236 376.847 281.248 376.834 281.218L367.402 275.031C367.106 274.83 366.85 274.684 366.634 274.593C366.375 274.484 366.152 274.441 365.965 274.464C365.777 274.486 365.652 274.573 365.588 274.724C365.415 275.133 365.572 275.936 366.058 277.131ZM369.017 267.867C368.69 268.643 368.795 269.627 369.334 270.819C369.863 272.032 370.624 273.178 371.617 274.257C372.61 275.336 373.548 276.062 374.433 276.434C375.101 276.716 375.687 276.773 376.19 276.604C376.715 276.445 377.105 276.063 377.36 275.46C377.651 274.77 377.653 273.984 377.365 273.101C377.099 272.227 376.581 271.348 375.81 270.464C375.052 269.612 374.121 268.838 373.017 268.144C372.536 267.839 372.058 267.587 371.583 267.387C370.246 266.823 369.391 266.983 369.017 267.867Z" fill="#DE9E48"/>
<path d="M368.171 296.989C367.899 297.48 367.454 297.849 366.836 298.095C366.218 298.342 365.696 298.294 365.27 297.952C365.006 297.752 364.813 297.472 364.692 297.111C364.591 296.761 364.631 296.423 364.813 296.095C365.017 295.727 365.405 295.46 365.978 295.295C366.148 295.229 366.308 295.157 366.458 295.08C366.608 295.002 366.723 294.892 366.802 294.749C367.018 294.36 366.715 293.577 365.894 292.402C365.094 291.238 364.041 289.974 362.736 288.611C361.451 287.259 360.271 286.152 359.196 285.291C359.055 285.159 359.007 284.932 359.051 284.609C359.085 284.307 359.221 283.941 359.459 283.511C359.799 282.897 360.04 282.63 360.184 282.709L360.744 283.219C360.885 283.351 361.072 283.521 361.304 283.729C361.557 283.949 361.861 284.198 362.217 284.474L368.024 289.208C368.511 289.584 368.826 289.812 368.97 289.891C369.625 290.254 370.066 290.23 370.293 289.821C370.542 289.37 370.477 288.546 370.098 287.347C370.088 287.315 370.095 287.279 370.118 287.238C370.152 287.176 370.211 287.142 370.295 287.135C370.4 287.139 370.471 287.179 370.51 287.254C370.933 288.423 371.176 289.386 371.238 290.143C371.29 290.92 371.157 291.595 370.84 292.168C370.579 292.639 370.249 292.897 369.848 292.944C369.457 293.022 368.975 292.902 368.402 292.585C368.053 292.392 367.6 292.075 367.042 291.633L363.879 289.083C365.517 290.763 366.752 292.302 367.585 293.698C368.417 295.093 368.613 296.19 368.171 296.989Z" fill="#DE9E48"/>
<path d="M348.888 300.649C349.791 299.339 350.896 298.664 352.202 298.626C353.513 298.62 354.825 299.068 356.136 299.97C356.599 300.288 357.105 300.708 357.656 301.229C358.628 302.211 359.316 303.337 359.719 304.609C360.122 305.88 360.242 307.128 360.081 308.352C359.939 309.589 359.562 310.651 358.951 311.537C358.473 312.23 357.901 312.731 357.234 313.039C356.573 313.379 355.972 313.364 355.432 312.992C355.028 312.714 354.779 312.373 354.688 311.969C354.603 311.598 354.706 311.2 354.998 310.776C355.503 310.044 356.197 309.883 357.081 310.292C357.475 310.421 357.828 310.465 358.14 310.425C358.472 310.397 358.764 310.201 359.016 309.834C359.494 309.141 359.54 308.292 359.152 307.286C358.771 306.314 358.049 305.32 356.986 304.304C356.429 303.751 355.852 303.269 355.255 302.857C354.021 302.008 352.855 301.575 351.758 301.559C350.667 301.575 349.769 302.093 349.065 303.114C348.76 303.557 348.531 304.096 348.378 304.729C348.245 305.376 348.197 305.982 348.234 306.547L348.214 306.576C348.174 306.634 348.106 306.672 348.008 306.69C347.91 306.708 347.846 306.678 347.814 306.599C347.625 305.389 347.629 304.27 347.826 303.241C348.03 302.245 348.384 301.381 348.888 300.649Z" fill="#DE9E48"/>
<path d="M334.798 323.526C334.803 323.592 334.79 323.643 334.759 323.678C334.714 323.732 334.64 323.745 334.538 323.72C334.455 323.709 334.409 323.655 334.402 323.556C334.213 322.342 334.148 321.36 334.209 320.609C334.27 319.858 334.515 319.235 334.943 318.739C335.279 318.349 335.647 318.156 336.045 318.16C336.429 318.181 336.851 318.391 337.312 318.788C337.595 319.033 337.965 319.428 338.42 319.975L341.983 324.39C342.332 324.846 342.719 325.257 343.145 325.623C344.066 326.418 344.795 326.505 345.33 325.885C345.774 325.372 345.912 324.549 345.746 323.417C345.564 322.302 345.049 320.947 344.201 319.351C343.37 317.77 342.224 316.071 340.762 314.255L340.242 313.621C340 313.258 340.207 312.695 340.865 311.933C341.323 311.402 341.615 311.19 341.739 311.297L342.232 311.907C342.912 312.803 343.298 313.305 343.389 313.414L355.124 328.025C355.379 328.338 355.605 328.579 355.8 328.747C356.066 328.976 356.299 329.1 356.499 329.118C356.7 329.136 356.884 329.048 357.052 328.853C357.267 328.605 357.479 328.109 357.69 327.363L357.735 327.31C357.781 327.257 357.864 327.251 357.983 327.292C358.087 327.351 358.117 327.423 358.074 327.509L356.639 333.039L356.593 333.092C356.532 333.163 356.452 333.202 356.353 333.209C356.239 333.234 356.171 333.222 356.151 333.174L344.704 319.09C345.782 321.1 346.413 322.895 346.595 324.474C346.763 326.07 346.449 327.329 345.654 328.25C344.629 329.437 343.399 329.411 341.963 328.174C341.626 327.883 341.213 327.449 340.722 326.872L336.746 321.915C336.526 321.633 336.327 321.415 336.15 321.262C335.689 320.865 335.328 320.817 335.069 321.118C334.793 321.437 334.703 322.24 334.798 323.526Z" fill="#DE9E48"/>
</svg>
