<svg width="50" height="50" viewBox="0 0 50 50" fill="none" xmlns="http://www.w3.org/2000/svg">
<path d="M24.3328 0.592654C24.4267 -0.197551 25.5733 -0.197551 25.6672 0.592654L26.4537 7.22176C27.4694 15.7817 34.2183 22.5306 42.7782 23.5463L49.4073 24.3328C50.1976 24.4267 50.1976 25.5733 49.4073 25.6672L42.7782 26.4537C34.2183 27.4694 27.4694 34.2183 26.4537 42.7782L25.6672 49.4073C25.5733 50.1976 24.4267 50.1976 24.3328 49.4073L23.5463 42.7782C22.5306 34.2183 15.7817 27.4694 7.22176 26.4537L0.592654 25.6672C-0.197551 25.5733 -0.197551 24.4267 0.592654 24.3328L7.22176 23.5463C15.7817 22.5306 22.5306 15.7817 23.5463 7.22176L24.3328 0.592654Z" fill="#DE9E48"/>
</svg>
